<svg width="218" height="49" viewBox="0 0 218 49" fill="none" xmlns="http://www.w3.org/2000/svg">
<path d="M11.206 47.068C11.36 47.068 11.646 46.98 11.756 46.98C11.91 46.98 12.064 46.958 12.196 46.914C12.262 46.892 12.35 46.87 12.438 46.848C12.944 46.782 13.45 46.694 13.934 46.562C14.088 46.518 14.264 46.496 14.418 46.496C14.572 46.474 14.748 46.452 14.902 46.408C15.012 46.364 15.144 46.32 15.276 46.254C15.452 46.188 15.628 46.122 15.826 46.056C15.98 46.012 16.156 45.968 16.332 45.946C16.442 45.924 16.574 45.902 16.684 45.88C16.926 45.792 17.102 45.616 17.344 45.528C17.498 45.462 17.674 45.418 17.872 45.374C18.356 45.264 18.818 45.088 19.236 44.846C19.5 44.692 19.764 44.582 20.05 44.472C20.292 44.406 20.512 44.296 20.754 44.186C21.15 43.988 21.546 43.812 21.964 43.658C22.448 43.46 22.888 43.262 23.306 43.02C23.438 42.954 23.57 42.866 23.68 42.778C23.79 42.712 23.922 42.624 24.054 42.558C25.308 41.964 26.54 41.304 27.706 40.556C28.498 40.072 29.29 39.61 30.104 39.17C30.39 39.016 30.676 38.818 30.962 38.598C31.182 38.444 31.402 38.29 31.644 38.136C31.93 37.96 32.216 37.762 32.48 37.542C32.722 37.344 32.986 37.168 33.228 36.992C34.218 36.398 35.12 35.716 35.956 34.968C36.264 34.704 36.594 34.462 36.946 34.22C37.1 34.11 37.232 34.022 37.386 33.912C37.452 33.846 37.518 33.758 37.584 33.67C37.65 33.604 37.716 33.516 37.782 33.45C37.848 33.384 37.936 33.34 38.002 33.296C38.134 33.23 38.244 33.142 38.354 32.988C38.684 32.526 39.08 32.13 39.564 31.8C39.85 31.58 40.114 31.338 40.312 31.074C40.4 30.964 40.51 30.832 40.62 30.722C40.73 30.612 40.862 30.524 40.972 30.436C41.126 30.326 41.258 30.216 41.39 30.084C41.478 29.974 41.566 29.864 41.632 29.754C41.83 29.468 42.028 29.226 42.38 28.984C42.468 28.874 42.556 28.764 42.644 28.654C42.71 28.544 42.798 28.434 42.864 28.346C43.37 27.708 43.898 27.048 44.404 26.366C44.668 26.036 44.932 25.706 45.174 25.376C45.284 25.222 45.372 25.068 45.438 24.892C45.504 24.76 45.57 24.628 45.636 24.518C46.406 23.352 47.066 22.164 47.572 20.932C47.594 20.844 47.638 20.756 47.66 20.646C47.682 20.492 47.748 20.338 47.814 20.184C47.858 20.096 47.924 20.03 47.99 19.986C48.056 19.942 48.1 19.876 48.144 19.81C48.144 19.37 48.144 19.282 48.232 18.974C48.254 18.93 48.254 18.864 48.276 18.798C48.65 17.632 48.826 16.466 48.826 15.278C48.826 13.892 48.628 12.22 48.034 11.054C47.924 10.856 47.814 10.636 47.704 10.416C47.55 10.108 47.374 9.8 47.176 9.514C46.208 7.952 44.69 6.61 43.26 5.62C42.754 5.246 42.204 4.96 41.61 4.762C41.412 4.696 41.236 4.608 41.06 4.52C40.73 4.366 40.4 4.234 40.026 4.124C39.938 4.102 39.85 4.08 39.74 4.058C39.674 4.036 39.586 4.036 39.498 4.014C39.366 3.926 39.256 3.816 39.102 3.816C39.036 3.816 38.992 3.926 38.926 3.926C38.816 3.926 38.75 3.926 38.684 3.86C38.662 3.838 38.618 3.838 38.574 3.816C38.178 3.662 37.738 3.596 37.276 3.574C37.122 3.552 36.99 3.552 36.858 3.53C36.484 3.486 36.132 3.464 35.78 3.464C35.362 3.464 34.944 3.486 34.526 3.53C34.328 3.552 34.108 3.552 33.888 3.552C33.492 3.53 33.096 3.574 32.722 3.64C32.128 3.75 31.512 3.86 30.918 3.948C30.236 4.014 29.576 4.124 28.894 4.278C28.652 4.344 28.432 4.41 28.19 4.476C27.816 4.586 27.464 4.674 27.09 4.74C26.54 4.828 25.99 5.004 25.462 5.268C25.44 5.29 25.396 5.29 25.374 5.312C25.088 5.4 24.824 5.4 24.56 5.488C24.34 5.598 24.098 5.686 23.856 5.752C22.998 6.038 22.316 6.28 21.854 6.456C21.37 6.654 20.842 6.852 20.27 7.094C19.94 7.248 19.566 7.402 19.126 7.578C18.95 7.644 18.774 7.71 18.576 7.776C18.422 7.82 18.29 7.864 18.18 7.908C18.026 7.974 17.872 8.062 17.718 8.172C17.674 8.194 17.63 8.238 17.586 8.26C17.344 8.37 17.08 8.48 16.838 8.59C16.596 8.678 16.354 8.788 16.112 8.898C15.914 9.008 15.738 9.096 15.54 9.206C14.902 9.536 14.242 9.866 13.56 10.174C12.922 10.46 12.284 10.812 11.668 11.208C11.184 11.494 10.7 11.78 10.194 12.044C9.798 12.242 9.402 12.484 8.984 12.748C8.61 12.99 8.214 13.21 7.84 13.43C7.642 13.584 7.488 13.804 7.246 13.958C7.18 14.002 7.092 14.024 7.004 14.046C6.938 14.068 6.85 14.09 6.784 14.134C6.718 14.178 6.674 14.222 6.63 14.288C6.608 14.332 6.564 14.376 6.542 14.398C6.256 14.64 5.948 14.904 5.64 15.168C4.738 15.872 3.924 16.664 3.198 17.522C3.154 17.588 3.11 17.632 3.066 17.698C2.956 17.896 2.802 18.072 2.626 18.226C2.56 18.27 2.516 18.314 2.45 18.336C2.362 18.402 2.274 18.424 2.186 18.6C2.054 18.886 1.9 19.194 1.702 19.48C1.57 19.7 1.438 19.92 1.328 20.14C1.042 20.778 0.888 21.394 0.888 22.032C0.91 23.088 1.46 24.056 2.45 24.056C2.868 24.056 3.462 23.814 3.462 23.462C3.462 23.286 3.242 23.066 3.132 23.066C3.066 23.066 3 23.088 2.934 23.11C2.868 23.132 2.758 23.154 2.648 23.154C1.944 23.154 1.812 22.45 1.812 21.746C1.812 21.46 1.834 21.174 1.878 20.888C1.944 20.734 2.01 20.58 2.12 20.448C2.186 20.338 2.252 20.25 2.318 20.14C2.384 20.03 2.45 19.898 2.516 19.766C2.67 19.348 2.89 19.018 3.176 18.732C3.374 18.556 3.462 18.424 3.638 18.16C3.638 18.138 3.638 18.138 3.638 18.138C5.046 16.268 7.07 14.816 8.918 13.65C9.05 13.562 9.182 13.474 9.292 13.364C9.468 13.21 9.666 13.078 9.864 12.968C10.326 12.726 10.788 12.462 11.228 12.176C11.558 11.956 11.932 11.736 12.328 11.516C12.548 11.384 12.768 11.274 12.988 11.186C13.12 11.12 13.252 11.076 13.384 11.01C13.494 10.944 13.626 10.878 13.736 10.79C13.868 10.68 14 10.592 14.154 10.526C14.55 10.328 14.946 10.152 15.342 9.998C15.452 9.932 15.584 9.888 15.694 9.844C16.156 9.624 16.618 9.404 17.058 9.162C17.74 8.832 18.422 8.502 19.104 8.194C20.204 7.71 21.348 7.27 22.514 6.852C22.712 6.786 22.91 6.698 23.108 6.632C23.482 6.456 23.878 6.302 24.296 6.192C24.406 6.17 24.516 6.126 24.626 6.082C26.452 5.532 28.058 5.092 29.4 4.784C30.742 4.498 32.458 4.256 34.548 4.102L34.922 4.08C35.802 4.08 36.726 4.19 37.672 4.388C37.782 4.41 37.914 4.41 38.024 4.41C38.222 4.41 38.398 4.432 38.552 4.476C38.706 4.542 38.816 4.63 38.926 4.696C40.004 4.806 40.994 5.158 41.896 5.752C42.116 5.906 42.336 6.038 42.578 6.17C42.864 6.324 43.128 6.478 43.392 6.654C43.898 6.984 44.338 7.38 44.734 7.842C45.636 8.7 46.384 9.69 46.934 10.812C47.022 11.01 47.11 11.186 47.22 11.362C47.286 11.494 47.352 11.626 47.418 11.736C47.572 12.198 47.682 12.66 47.726 13.078C47.77 13.408 47.836 13.738 47.924 14.024C47.99 14.31 48.034 14.618 48.034 14.926C48.034 15.212 48.012 15.476 47.99 15.718C47.946 15.96 47.924 16.224 47.924 16.51V16.884C47.924 17.654 47.704 18.38 47.44 19.106C47.33 19.392 47.242 19.678 47.154 19.964C47.132 20.074 47.088 20.162 47.044 20.272C46.978 20.47 46.912 20.69 46.824 20.888C46.802 20.954 46.758 21.042 46.736 21.13C46.648 21.394 46.538 21.68 46.384 21.834C46.318 21.878 46.252 21.9 46.186 21.922C46.076 21.988 45.966 22.032 45.966 22.142L45.988 22.428C45.966 22.604 45.878 22.714 45.79 22.802C45.724 22.868 45.658 22.956 45.614 23.044C45.592 23.11 45.57 23.176 45.57 23.242C45.57 23.396 45.548 23.506 45.372 23.528C45.306 23.528 45.152 23.418 44.976 23.264C44.866 23.176 44.8 23.11 44.734 23.088C43.832 22.626 42.908 22.252 41.962 21.966C41.874 21.944 41.764 21.922 41.654 21.9C41.478 21.878 41.324 21.834 41.214 21.79C41.17 21.768 41.126 21.724 41.104 21.702C41.082 21.68 41.038 21.614 40.95 21.614C40.906 21.614 40.84 21.724 40.752 21.724C40.664 21.724 40.554 21.702 40.444 21.636C40.334 21.592 40.246 21.57 40.158 21.548C39.96 21.526 39.74 21.504 39.542 21.482C38.838 21.372 38.068 21.328 37.232 21.328L35.076 21.35C34.922 21.35 34.746 21.35 34.592 21.372C34.086 21.35 33.602 21.394 33.118 21.46C33.03 21.482 32.942 21.482 32.876 21.504C32.678 21.548 32.48 21.57 32.238 21.592L31.666 21.57C31.622 21.57 31.468 21.724 31.358 21.724C31.292 21.746 31.204 21.768 31.094 21.768C31.05 21.79 31.006 21.79 30.962 21.79C30.676 21.834 30.412 21.856 30.126 21.878C29.334 21.988 28.564 22.164 27.816 22.406C27.662 22.428 27.508 22.472 27.354 22.494C27.134 22.516 26.914 22.56 26.716 22.626C26.254 22.758 25.77 22.89 25.308 23.044C25.132 23.088 24.956 23.132 24.78 23.198C24.494 23.286 24.186 23.374 23.9 23.462C21.898 23.99 19.94 24.716 18.026 25.64C17.872 25.706 17.718 25.772 17.564 25.794C17.366 25.838 17.19 25.904 17.014 26.014C16.992 26.036 16.948 26.058 16.926 26.102C16.838 26.19 16.772 26.278 16.684 26.278C16.64 26.278 16.618 26.234 16.618 26.146C16.618 25.992 16.816 25.772 16.97 25.596C17.036 25.53 17.08 25.486 17.102 25.442C17.212 25.332 17.3 25.2 17.366 25.09C17.476 24.936 17.608 24.782 17.718 24.65C18.048 24.254 18.378 23.836 18.708 23.418C19.192 22.824 19.676 22.23 20.16 21.68C20.226 21.614 20.27 21.526 20.336 21.46C20.402 21.328 20.49 21.218 20.6 21.108C20.776 20.91 20.864 20.778 21.018 20.514C21.106 20.36 21.216 20.206 21.37 20.074C21.546 19.92 21.678 19.744 21.832 19.568C21.92 19.436 22.008 19.326 22.118 19.216C22.382 18.93 22.602 18.688 22.756 18.468C22.822 18.402 22.866 18.336 22.91 18.27C23.064 18.094 23.196 17.918 23.328 17.742C23.636 17.346 23.944 16.972 24.252 16.598C24.34 16.51 24.428 16.422 24.494 16.356C24.648 16.224 24.78 16.07 24.89 15.916C25.264 15.432 25.572 15.058 25.77 14.794C25.968 14.552 26.232 14.222 26.562 13.804C26.804 13.518 27.112 13.298 27.354 13.012C27.376 12.99 27.376 12.968 27.398 12.946C27.574 12.748 27.75 12.528 27.948 12.33C28.212 12.044 28.454 11.758 28.652 11.472C28.762 11.318 28.85 11.186 28.96 11.054C29.026 10.944 29.114 10.856 29.202 10.768C29.488 10.438 29.73 10.086 29.972 9.712C29.994 9.69 30.016 9.646 30.038 9.602C30.17 9.448 30.236 9.272 30.236 9.118C30.236 8.964 30.126 8.81 29.972 8.7C29.95 8.678 29.95 8.678 29.928 8.656C29.906 8.634 29.862 8.612 29.84 8.59C29.774 8.524 29.752 8.502 29.73 8.502C29.686 8.502 29.62 8.524 29.554 8.59C29.4 8.678 29.334 8.898 29.246 9.074C29.202 9.206 29.158 9.316 29.092 9.404L28.608 10.108C28.52 10.218 28.432 10.328 28.344 10.438C28.234 10.57 28.124 10.702 28.058 10.834C27.992 10.944 27.992 11.076 27.926 11.164C27.86 11.252 27.816 11.274 27.794 11.296C27.772 11.318 27.728 11.362 27.684 11.384C27.442 11.604 27.244 11.846 27.068 12.11C26.914 12.352 26.738 12.55 26.54 12.748C26.254 13.034 25.99 13.342 25.748 13.672C25.616 13.826 25.484 13.98 25.352 14.134C25.33 14.178 25.286 14.222 25.242 14.266C24.89 14.662 24.56 15.08 24.274 15.498C24.076 15.806 23.834 16.092 23.592 16.334C23.46 16.488 23.328 16.62 23.218 16.752C22.822 17.258 22.404 17.764 21.986 18.27C21.634 18.688 21.282 19.106 20.952 19.524C20.468 20.118 20.006 20.734 19.544 21.35C19.302 21.68 19.038 22.01 18.796 22.34C17.982 23.396 17.146 24.43 16.288 25.464C16.156 25.618 16.024 25.816 15.892 26.014C15.628 26.432 15.342 26.762 15.012 27.048C14.77 27.202 14.528 27.334 14.264 27.444C14.11 27.51 13.956 27.576 13.802 27.664C13.296 27.95 12.812 28.28 12.35 28.61C11.844 28.984 11.316 29.292 10.81 29.556C10.436 29.776 10.062 30.04 9.732 30.348C9.622 30.458 9.49 30.546 9.38 30.634C8.918 31.008 8.456 31.382 7.972 31.734C7.598 32.02 7.268 32.35 6.938 32.68C6.784 32.856 6.608 33.032 6.454 33.186C5.574 34.11 4.804 35.1 4.166 36.178C4.1 36.288 4.056 36.42 4.012 36.53C3.946 36.64 3.902 36.772 3.836 36.882C3.77 36.992 3.726 37.08 3.66 37.19C3.572 37.322 3.484 37.476 3.418 37.63C3.396 37.74 3.352 37.828 3.308 37.938C3.154 38.378 3.022 38.862 2.912 39.39C2.89 39.456 2.89 39.5 2.868 39.566C2.758 39.896 2.714 40.204 2.714 40.49L2.736 40.974V41.326C2.736 42.558 3.374 43.702 4.144 44.604C4.87 45.55 5.992 46.1 7.114 46.518C7.796 46.76 8.478 46.892 9.16 46.936H10.326C10.59 46.936 11.008 46.958 11.096 47.046C11.118 47.068 11.162 47.068 11.206 47.068ZM9.622 46.166C9.358 46.166 8.808 46.1 8.698 46.056C7.576 45.858 6.564 45.462 5.618 44.846C4.672 44.23 4.034 43.35 3.748 42.228C3.638 41.744 3.572 41.26 3.572 40.776C3.572 39.104 4.254 37.52 5.156 36.046C5.662 35.144 6.278 34.352 7.004 33.67C7.29 33.428 7.554 33.164 7.796 32.878C8.038 32.57 8.324 32.306 8.632 32.064C8.654 32.042 8.698 32.042 8.72 32.02C8.786 31.998 8.852 31.976 8.896 31.932C8.918 31.91 8.962 31.866 8.984 31.822C9.006 31.778 9.028 31.734 9.05 31.712C9.16 31.624 9.292 31.536 9.446 31.47C9.644 31.36 9.842 31.25 9.996 31.096C10.018 31.052 10.062 31.008 10.084 30.964C10.106 30.898 10.128 30.854 10.194 30.788C10.656 30.48 11.074 30.216 11.404 29.996C11.822 29.71 12.35 29.358 12.966 28.984C13.142 28.874 13.384 28.72 13.494 28.72C13.56 28.72 13.56 28.742 13.56 28.764C13.56 28.83 13.516 28.918 13.428 29.072C13.318 29.27 13.23 29.336 13.142 29.358C13.054 29.424 12.988 29.468 12.9 29.71C12.812 29.996 12.548 30.326 12.284 30.59C12.196 30.7 12.108 30.788 12.042 30.876C11.756 31.25 11.47 31.624 11.162 31.998C10.942 32.262 10.744 32.548 10.59 32.834C10.48 32.988 10.37 33.164 10.26 33.318C10.128 33.494 9.974 33.67 9.798 33.846C9.666 34 9.534 34.132 9.424 34.286C9.27 34.44 9.138 34.616 9.028 34.792C8.918 34.99 8.786 35.166 8.632 35.32C8.346 35.694 8.06 36.046 7.818 36.398C7.532 36.816 7.202 37.234 6.872 37.63C6.608 37.872 6.278 38.224 6.124 38.576C5.97 38.994 5.794 39.28 5.53 39.632C5.42 39.786 5.354 39.984 5.354 40.182C5.354 40.556 5.794 40.842 6.08 40.842C6.344 40.842 6.542 40.688 6.696 40.358C6.828 40.028 6.894 39.698 6.916 39.412C6.916 38.862 7.224 38.422 7.576 38.004C7.95 37.542 8.302 37.036 8.676 36.53C8.918 36.156 9.182 35.804 9.446 35.452C9.556 35.298 9.666 35.144 9.754 34.968C9.864 34.77 9.996 34.572 10.15 34.396C11.03 33.406 11.888 32.35 12.702 31.206C13.032 30.744 13.384 30.282 13.714 29.842C13.846 29.666 13.978 29.49 14.11 29.314C14.286 29.072 14.484 28.808 14.682 28.566C14.77 28.456 14.858 28.324 14.946 28.214C15.144 27.884 15.408 27.598 15.694 27.4C16.156 27.136 16.618 26.916 17.124 26.74C17.586 26.564 18.026 26.366 18.4 26.146C18.686 25.992 18.994 25.86 19.28 25.75C19.434 25.684 19.566 25.64 19.72 25.574C20.27 25.376 20.754 25.068 21.304 24.87C23.306 24.188 25.33 23.616 27.376 23.154C27.442 23.132 27.53 23.132 27.596 23.11C28.036 23.022 28.476 22.912 28.894 22.758C29.026 22.714 29.158 22.692 29.268 22.692C29.334 22.692 29.422 22.692 29.51 22.67C29.62 22.648 29.708 22.626 29.818 22.582C29.928 22.516 30.038 22.494 30.148 22.472C30.632 22.45 31.116 22.384 31.622 22.318C32.128 22.23 32.634 22.164 33.14 22.142C33.404 22.12 33.668 22.098 33.932 22.054C34.218 22.01 34.504 21.988 34.812 21.966C35.01 21.966 35.23 22.01 35.428 22.01C35.846 21.988 36.044 21.966 36.286 21.966H36.88C37.716 21.966 38.354 21.988 38.816 22.032C39.278 22.098 39.806 22.164 40.444 22.274C40.664 22.318 40.906 22.362 41.17 22.406C41.61 22.472 42.05 22.604 42.468 22.758C42.49 22.758 42.534 22.758 42.556 22.78C42.666 22.824 42.798 22.868 42.908 22.89C43.106 22.956 43.282 23.022 43.458 23.088C43.568 23.154 43.656 23.198 43.744 23.264C43.854 23.33 43.964 23.396 44.096 23.462C44.14 23.484 44.206 23.484 44.272 23.506C44.646 23.594 45.13 23.726 45.13 24.056C45.13 24.298 44.91 24.54 44.712 24.782C44.624 24.87 44.558 24.958 44.514 25.024C43.964 25.926 43.348 26.74 42.71 27.51C42.578 27.664 42.446 27.796 42.292 27.95C42.116 28.126 41.94 28.324 41.786 28.522C41.72 28.632 41.632 28.742 41.566 28.852C41.5 29.006 41.412 29.116 41.324 29.226C41.214 29.336 41.126 29.402 41.016 29.446C40.95 29.49 40.884 29.534 40.818 29.578C40.73 29.644 40.664 29.732 40.62 29.842C40.598 29.908 40.554 29.974 40.488 30.04C40.4 30.172 40.29 30.282 40.158 30.37C40.136 30.392 40.092 30.436 40.048 30.458C39.542 30.898 39.058 31.36 38.552 31.866C37.65 32.812 36.66 33.67 35.582 34.462C35.494 34.528 35.428 34.594 35.362 34.704C35.274 34.814 35.186 34.88 35.098 34.946C35.032 34.968 34.988 34.99 34.944 35.012C34.856 35.012 34.812 35.034 34.746 35.1C34.57 35.254 34.526 35.43 34.35 35.584C34.196 35.672 33.976 35.804 33.822 35.87C33.492 35.98 33.36 36.134 33.184 36.244C33.118 36.31 33.052 36.354 32.964 36.42C32.898 36.464 32.854 36.508 32.788 36.552C32.502 36.772 32.216 36.97 31.908 37.168C31.226 37.586 30.588 38.004 29.994 38.422C29.268 38.928 28.542 39.39 27.816 39.808C27.574 39.918 27.354 40.072 27.156 40.226C26.914 40.38 26.672 40.534 26.408 40.666C25.99 40.886 25.572 41.106 25.176 41.348C25.132 41.37 25.088 41.392 25.022 41.436C24.868 41.546 24.692 41.678 24.538 41.678C24.516 41.678 24.45 41.634 24.384 41.612C24.296 41.854 24.076 41.964 23.834 42.03C23.768 42.052 23.724 42.074 23.68 42.096C23.526 42.162 23.394 42.228 23.24 42.294C23.086 42.382 22.954 42.448 22.8 42.514C22.536 42.624 22.294 42.756 22.052 42.888C21.766 43.042 21.458 43.196 21.15 43.306C20.424 43.57 19.698 43.856 18.972 44.164C18.378 44.406 17.762 44.648 17.168 44.89C16.024 45.308 14.858 45.616 13.648 45.836C13.318 45.902 12.966 45.968 12.636 45.99C12.35 46.012 12.064 46.056 11.8 46.1L11.316 46.144L10.678 46.122C10.656 46.122 10.59 46.122 10.502 46.1C10.348 46.078 10.216 46.078 10.062 46.078C9.886 46.078 9.864 46.166 9.622 46.166ZM51.0856 34.638C51.5256 34.638 51.9216 34.418 52.2516 34.22C52.3396 34.176 52.4276 34.132 52.4936 34.088C52.5596 34.066 52.6256 34.022 52.6916 34C52.8676 33.978 52.9776 33.912 52.9776 33.67C53.0656 33.472 53.1976 33.56 53.3956 33.406C53.4176 33.384 53.4396 33.34 53.4396 33.318C53.4616 33.252 53.4836 33.208 53.5056 33.186C53.7916 32.922 54.3196 32.9 54.7816 32.9C54.9576 32.9 55.1116 32.9 55.2656 32.878C55.9476 32.812 56.4756 32.724 56.8936 32.636C57.2896 32.548 57.8176 32.394 58.4556 32.152C58.5876 32.13 58.7196 32.108 58.8296 32.108C58.9396 32.108 59.0496 32.086 59.1596 32.064C59.4456 31.976 59.7536 31.8 60.0176 31.712C60.1276 31.69 60.2596 31.646 60.3696 31.624C60.5456 31.602 60.7216 31.536 60.8976 31.47C61.0956 31.382 61.2716 31.294 61.4476 31.228C61.8216 31.052 62.1736 30.898 62.5476 30.744C62.8116 30.634 63.0756 30.502 63.3396 30.348C63.4716 30.282 63.6036 30.216 63.7136 30.172C63.8456 30.15 63.9776 30.084 64.0876 30.018C64.2196 29.952 64.3516 29.908 64.4616 29.842C64.8356 29.644 65.1876 29.468 65.5616 29.27C65.7156 29.182 65.8476 29.094 65.9576 29.006C66.0236 28.962 66.0896 28.918 66.1556 28.852C66.1996 28.83 66.2436 28.808 66.3096 28.786C66.3976 28.764 66.5516 28.698 66.5736 28.61C66.6396 28.522 66.6616 28.456 66.6616 28.412C66.6396 28.346 66.5956 28.302 66.5076 28.302C66.2876 28.302 65.8916 28.456 65.7816 28.5C65.3636 28.632 64.9676 28.808 64.5936 29.05C64.3736 29.182 64.1316 29.314 63.8676 29.424C63.6696 29.534 63.4716 29.622 63.2516 29.688C63.1856 29.71 63.0976 29.754 63.0096 29.776C62.8776 29.842 62.7236 29.908 62.5696 29.974C62.1516 30.172 61.7556 30.326 61.3376 30.436C61.0296 30.524 60.7216 30.634 60.3916 30.766C60.3256 30.788 60.2596 30.832 60.1716 30.876C60.0176 30.986 59.8636 31.03 59.7096 31.03C59.6876 31.03 59.5776 30.942 59.4896 30.942C59.4016 30.942 59.3356 30.986 59.3136 31.052C59.2696 31.096 59.2256 31.14 59.1596 31.162C59.0276 31.228 58.8736 31.25 58.7196 31.272C58.5656 31.272 58.3896 31.294 58.2356 31.36C57.9056 31.492 57.5536 31.58 57.1796 31.646C56.9816 31.668 56.7616 31.712 56.5416 31.778C56.3876 31.8 55.7716 31.954 55.3536 31.954C55.0456 31.954 55.0236 31.888 55.0236 31.8C55.0236 31.778 55.0236 31.778 55.0016 31.778C55.0016 31.624 55.1556 31.536 55.3096 31.448C55.3536 31.426 55.3756 31.404 55.3976 31.382C55.9476 30.854 56.4536 30.282 56.9156 29.666C57.0036 29.556 57.0916 29.468 57.1576 29.358C57.3556 29.16 57.5316 28.94 57.7296 28.72C58.3016 28.104 58.8296 27.466 59.2916 26.806C59.4016 26.652 59.5116 26.52 59.6216 26.366C59.7756 26.124 59.9516 25.882 60.1276 25.64C60.3256 25.354 60.5016 25.068 60.6556 24.76C60.7436 24.606 60.8316 24.43 60.9196 24.276C61.2056 23.814 61.3816 23.418 61.4916 23.132C61.5796 22.846 61.6456 22.45 61.6676 21.9C61.6676 21.174 60.9856 20.382 60.0836 20.382C59.7316 20.382 59.3796 20.448 59.0276 20.558C57.9496 20.778 56.9596 21.174 56.0136 21.768C55.7716 21.944 55.5076 22.098 55.2216 22.252C54.6056 22.604 54.0336 23 53.5276 23.44C53.4176 23.528 53.3296 23.616 53.2196 23.726C52.4716 24.342 51.8336 25.024 51.3056 25.794C51.0196 26.3 50.7556 26.806 50.5576 27.312C50.5356 27.378 50.5136 27.466 50.4916 27.554C50.3376 28.082 50.1396 28.72 50.1396 29.6C50.1396 30.084 50.2276 30.546 50.4256 30.986C50.5356 31.14 50.6236 31.25 50.7116 31.338C50.8656 31.448 50.9536 31.558 50.9536 31.734C50.9536 31.91 50.8656 32.108 50.6676 32.328C50.5136 32.57 50.3376 32.834 50.3376 33.098C50.3156 33.296 50.2936 33.45 50.2716 33.56C50.2496 33.626 50.2276 33.736 50.2276 33.868C50.2276 33.956 50.2496 34.044 50.2936 34.154C50.4036 34.33 50.5356 34.396 50.6896 34.462C50.7776 34.484 50.8656 34.55 50.9536 34.616C50.9976 34.638 51.0416 34.638 51.0856 34.638ZM51.5256 33.494C51.4156 33.472 51.3496 33.406 51.3496 33.252C51.3496 32.922 51.6136 32.438 51.8776 32.372C52.1196 32.372 52.4716 32.57 52.4716 32.812C52.4276 33.01 51.8336 33.45 51.5916 33.494H51.5256ZM53.7036 31.844C53.6596 31.844 53.6156 31.844 53.5936 31.822C53.5496 31.8 53.5056 31.8 53.4836 31.8C53.3956 31.8 53.3956 31.844 53.3076 31.844C53.1316 31.844 52.6036 31.624 52.4716 31.536C52.4056 31.448 52.3616 31.36 52.3616 31.272C52.3616 31.074 52.5376 30.832 52.6476 30.634C52.6696 30.612 52.6916 30.568 52.7136 30.546C52.8676 30.348 52.9996 30.15 53.1536 29.952C53.6376 29.226 54.1656 28.566 54.7156 27.928C54.9796 27.62 55.2876 27.378 55.6396 27.224C55.6836 27.202 55.7276 27.202 55.7496 27.18C55.8156 27.114 55.9036 27.092 55.9916 27.092L56.1016 27.114C56.1676 27.136 56.2336 27.18 56.2776 27.224C56.2996 27.29 56.3656 27.356 56.5196 27.378C56.8716 27.378 56.9156 27.026 56.9376 26.674C56.9376 26.674 56.9376 26.674 56.9376 26.652C56.9376 26.3 56.6736 26.19 56.2996 26.08C56.1896 26.036 56.1016 26.014 55.9916 26.014C55.4636 26.014 54.9576 26.476 54.6056 26.894C54.5836 26.894 54.5836 26.894 54.5616 26.916C54.2536 27.224 53.9676 27.532 53.7256 27.862C53.5716 28.038 53.3956 28.214 53.2196 28.412C52.6696 28.962 52.2296 29.556 51.8996 30.238C51.8116 30.436 51.6796 30.612 51.5696 30.612C51.3056 30.612 51.0856 29.974 51.0856 29.468C51.1076 29.182 51.1296 28.94 51.1736 28.698C51.1956 28.5 51.2176 28.258 51.2396 27.994C51.3276 27.422 51.5476 26.894 51.8996 26.432C51.9656 26.344 52.0096 26.256 52.0536 26.168C52.0756 26.102 52.1196 26.014 52.1636 25.926C52.3176 25.728 52.5156 25.508 52.7136 25.31C52.8016 25.222 52.8676 25.134 52.9336 25.068C53.5496 24.43 54.2316 23.858 54.9796 23.33C55.2656 23.132 55.5296 22.912 55.7716 22.714C55.9696 22.582 56.1456 22.494 56.3216 22.45C56.4756 22.384 56.6296 22.318 56.7836 22.23C56.8716 22.164 56.9596 22.12 57.0476 22.076C57.3336 21.9 57.6196 21.746 57.9056 21.614C58.0816 21.57 58.2576 21.526 58.4336 21.504C58.5876 21.482 58.7636 21.46 58.9396 21.416C59.0716 21.372 59.2036 21.35 59.3576 21.35C59.3796 21.328 59.4236 21.328 59.4676 21.328C59.5336 21.306 59.6216 21.284 59.6876 21.262C59.7756 21.218 59.8636 21.196 59.9736 21.174C60.1276 21.174 60.1936 21.218 60.2816 21.24C60.3476 21.262 60.4136 21.306 60.5236 21.328L60.5016 21.306C60.8756 21.306 60.9636 21.702 60.9636 22.054C60.9636 22.604 60.7436 23.132 60.5676 23.572C60.5456 23.638 60.5016 23.682 60.4796 23.748C60.4576 23.836 60.4136 23.924 60.3916 24.034C60.3696 24.144 60.3256 24.254 60.2816 24.342C60.2596 24.452 60.1936 24.518 60.1276 24.584C60.0616 24.65 60.0176 24.694 59.9736 24.76C59.9516 24.826 59.9076 24.892 59.8856 24.958C59.8636 25.046 59.8196 25.134 59.7536 25.2C59.6656 25.332 59.5556 25.464 59.4456 25.574C59.2916 25.728 59.1376 25.904 59.0276 26.08C58.9836 26.146 58.9396 26.234 58.8956 26.3C58.7196 26.564 58.5436 26.828 58.3456 27.07C58.1916 27.268 58.0156 27.466 57.8396 27.664C57.7736 27.73 57.7076 27.796 57.6416 27.862C57.5096 28.016 57.3776 28.17 57.2676 28.324C57.1356 28.5 56.9816 28.676 56.8276 28.83C56.7176 28.94 56.6296 29.072 56.5416 29.182C56.4316 29.358 56.2776 29.512 56.1016 29.666C55.7716 29.908 55.4636 30.194 55.1776 30.524C55.0236 30.7 54.8256 30.876 54.6056 31.03C54.4076 31.184 54.2096 31.36 54.0336 31.536C54.0116 31.58 53.9896 31.624 53.9676 31.646C53.9456 31.734 53.8796 31.822 53.7256 31.844H53.7036ZM61.5136 23.506L61.5576 23.484H61.4916V23.506H61.5136ZM63.7288 34.836C63.8828 34.836 64.0588 34.726 64.1688 34.638C64.1688 34.616 64.1688 34.616 64.1908 34.616C64.6968 34.264 65.1588 33.868 65.5768 33.45C65.8188 33.208 66.0608 32.966 66.3248 32.746L67.2708 31.888C67.3148 31.844 67.3588 31.8 67.4028 31.756C67.6668 31.47 67.9528 31.228 68.2388 31.008C68.4368 30.854 68.6348 30.7 68.8108 30.546C68.9428 30.414 69.0748 30.282 69.2288 30.172C69.6028 29.886 69.9548 29.578 70.3068 29.248C70.5928 29.006 70.8788 28.742 71.1648 28.5C71.3188 28.346 71.4948 28.214 71.6928 28.082C71.8688 27.972 72.0448 27.84 72.1988 27.686C72.2648 27.62 72.3088 27.576 72.3748 27.532C72.6608 27.246 72.9688 27.026 73.3208 26.828C73.4088 26.784 73.4968 26.74 73.5848 26.696C73.7388 26.652 73.8708 26.586 73.9808 26.476C74.0468 26.432 74.0908 26.388 74.1348 26.344C74.2008 26.278 74.2888 26.212 74.3988 26.146C74.5968 26.058 74.9488 25.948 75.2348 25.948C75.7408 25.948 75.8508 26.476 75.8508 26.982C75.8288 27.312 75.7628 27.598 75.6968 27.862C75.6308 28.104 75.5648 28.39 75.5428 28.676C75.5428 28.918 75.5208 29.16 75.4548 29.38C75.4108 29.556 75.3888 29.732 75.3668 29.908C75.3228 30.194 75.2788 30.458 75.2128 30.656C75.1468 30.898 75.1028 31.184 75.0588 31.558C75.0588 32.174 75.1468 32.768 75.3448 33.34C75.5208 33.912 75.9168 34.308 76.5548 34.55C76.6648 34.572 76.8188 34.638 76.9728 34.638C77.1488 34.638 77.2368 34.55 77.3908 34.55L77.5448 34.594C77.9188 34.594 78.3148 34.462 78.5128 34.374C78.5348 34.352 78.5568 34.352 78.5788 34.352C79.2168 34.088 79.8328 33.758 80.4048 33.384C80.5808 33.23 80.7568 33.12 80.9548 33.01C81.1308 32.922 81.2848 32.812 81.3948 32.702C81.4608 32.636 81.5488 32.548 81.6368 32.482C81.8128 32.372 81.9888 32.262 82.1648 32.152C82.3628 32.042 82.5608 31.932 82.7368 31.8C82.8468 31.712 82.9788 31.624 83.0888 31.514C83.3308 31.294 83.5948 31.118 83.8588 30.964C83.9468 30.942 84.0348 30.92 84.1008 30.898C84.2328 30.876 84.3428 30.832 84.4528 30.766C84.5188 30.7 84.5628 30.634 84.6068 30.546C84.6508 30.48 84.6948 30.414 84.7608 30.348C84.8928 30.238 85.0248 30.15 85.1568 30.128C85.3328 30.062 85.4868 30.018 85.6408 29.776C85.7288 29.6 85.8608 29.402 86.0588 29.314L86.3228 29.292C86.4328 29.204 86.5648 28.896 86.5648 28.698C86.5648 28.544 86.5208 28.478 86.4108 28.478C86.1468 28.478 85.6848 28.852 85.5528 28.984C85.4868 29.028 85.4428 29.072 85.3988 29.138C85.3108 29.226 85.2008 29.292 85.0688 29.358C85.0248 29.38 84.9808 29.402 84.9368 29.424C84.8268 29.468 84.6948 29.534 84.5848 29.622C84.4748 29.688 84.3868 29.776 84.2988 29.842C84.1008 29.996 83.9028 30.128 83.7048 30.238C83.5948 30.304 83.4628 30.348 83.3528 30.414C83.1548 30.502 82.9348 30.634 82.7368 30.788C82.3408 31.118 81.9228 31.426 81.4608 31.668C81.2628 31.778 81.0868 31.91 80.9328 32.02C80.7568 32.152 80.5808 32.284 80.3828 32.394C80.2068 32.482 80.0088 32.504 79.7668 32.658C79.6788 32.724 79.5908 32.768 79.5028 32.812C79.0628 33.076 78.6888 33.274 78.1388 33.362C78.0068 33.384 77.8748 33.428 77.7428 33.472C77.5448 33.56 77.3248 33.604 77.1048 33.604C76.7088 33.604 76.4228 33.406 76.2468 33.01C76.0708 32.614 75.9828 32.24 75.9828 31.866C75.9828 31.426 76.0268 30.986 76.1368 30.546C76.2028 30.194 76.2688 29.842 76.2908 29.512C76.3128 29.402 76.3348 29.292 76.3788 29.204C76.4008 29.116 76.4228 29.028 76.4448 28.94C76.4668 28.83 76.4668 28.742 76.4888 28.632C76.4888 28.544 76.4888 28.456 76.5108 28.346C76.6648 27.84 76.7308 27.334 76.7308 26.806C76.7308 25.926 76.2028 25.112 75.3008 25.112C74.9708 25.112 74.7948 25.222 74.5528 25.376C74.4428 25.464 74.2888 25.552 74.1128 25.618C73.7388 25.772 73.3648 25.97 73.0128 26.212C72.8588 26.322 72.7048 26.432 72.5508 26.498C72.1108 26.74 71.7368 27.136 71.3628 27.4C71.2088 27.51 71.0768 27.598 70.9448 27.708C70.6588 27.95 70.3948 28.17 70.1308 28.368C69.8888 28.566 69.6468 28.742 69.4048 28.94C68.2828 29.952 67.0728 30.986 65.7968 32.064C65.5108 32.306 65.2248 32.548 64.9388 32.79C64.9168 32.812 64.9168 32.812 64.8948 32.834C64.7848 32.988 64.5648 33.164 64.4548 33.164H64.4328C64.3448 33.142 64.3448 33.12 64.3448 33.12C64.4548 32.746 64.6308 32.394 64.8288 32.042C64.8508 31.976 64.8948 31.932 64.9168 31.866C65.1588 31.448 65.3788 31.03 65.5988 30.612C65.7968 30.238 65.9948 29.886 66.1928 29.534C66.2368 29.468 66.2808 29.38 66.3468 29.314C66.4348 29.226 66.5228 29.116 66.5888 29.006C66.6108 28.94 66.6548 28.852 66.6768 28.764C66.6988 28.698 66.7208 28.61 66.7428 28.544C66.8748 28.28 67.0288 28.016 67.1828 27.774C67.2928 27.598 67.4028 27.422 67.5128 27.246C67.5788 27.136 67.6228 27.026 67.6888 26.916C67.8428 26.608 68.0188 26.322 68.2168 26.036C68.2828 25.926 68.3708 25.838 68.4808 25.728C68.6568 25.574 68.7888 25.42 68.8768 25.244C68.8988 25.178 68.9428 25.09 68.9648 25.002C68.9868 24.87 69.0528 24.738 69.1188 24.606C69.2068 24.496 69.3388 24.408 69.4268 24.298C69.4268 24.298 69.4048 24.1 69.4708 24.034C69.5148 23.968 69.5588 23.88 69.6248 23.814C69.6908 23.748 69.7348 23.682 69.7788 23.616C69.8228 23.528 69.8668 23.44 69.9328 23.352C70.1308 22.956 70.3508 22.582 70.5708 22.208C70.6148 22.12 70.6588 22.032 70.7248 21.944C70.9008 21.614 71.1208 21.262 71.1208 20.932C71.1208 20.646 70.8788 20.162 70.5488 20.162C70.3948 20.162 70.2628 20.382 70.1088 20.58C69.9988 20.734 69.9108 20.866 69.8008 20.954C69.5808 21.13 69.4928 21.152 69.4048 21.284C69.3608 21.35 69.3168 21.46 69.2948 21.57C69.2728 21.636 69.2508 21.702 69.2288 21.768C69.2068 21.812 69.1848 21.856 69.1628 21.878C69.0748 21.988 69.0088 22.076 69.0088 22.23C69.0308 22.296 69.0528 22.362 69.0748 22.428C69.1408 22.494 69.1628 22.56 69.1628 22.648C69.1628 22.934 68.8548 23.374 68.6128 23.66C68.5908 23.682 68.5908 23.704 68.5688 23.726C68.5248 23.814 68.5028 23.902 68.4808 23.968C68.4588 24.056 68.4148 24.144 68.3708 24.232C68.3048 24.32 68.2388 24.408 68.1728 24.518C68.1068 24.584 68.0628 24.628 68.0188 24.694C67.9528 24.826 67.9088 24.958 67.8868 25.068C67.8648 25.134 67.8208 25.222 67.7988 25.31C67.7328 25.442 67.6448 25.552 67.5348 25.64C67.4908 25.684 67.4468 25.728 67.4028 25.772C67.2268 26.014 67.0728 26.256 66.9628 26.52C66.8968 26.674 66.8088 26.806 66.7428 26.938C66.1928 27.818 65.6868 28.72 65.2028 29.644C64.9608 30.106 64.7188 30.546 64.4768 30.964C64.2788 31.294 64.1028 31.646 63.9268 31.976C63.8608 32.086 63.7728 32.218 63.7068 32.35C63.4428 32.79 63.1788 33.208 63.1788 33.626C63.1788 33.89 63.2448 34.154 63.3988 34.396C63.4208 34.418 63.4208 34.462 63.4428 34.484C63.4648 34.528 63.4648 34.572 63.4868 34.594C63.5088 34.704 63.5528 34.792 63.6628 34.814L63.7288 34.836ZM86.6383 36.09C86.8803 36.09 87.2103 36.024 87.4083 36.002C87.4523 35.98 87.4963 35.98 87.5403 35.98C87.6063 35.98 87.6723 35.98 87.7383 35.958C88.0683 35.936 88.3983 35.892 88.6843 35.782C88.7063 35.782 88.7063 35.782 88.7283 35.76C89.3223 35.562 89.8943 35.276 90.4223 34.924C91.0383 34.55 91.6983 34.286 92.2923 33.912C92.3803 33.846 92.4683 33.78 92.5563 33.714C92.7543 33.56 92.9523 33.45 93.1503 33.34C93.2163 33.318 93.2823 33.296 93.3483 33.274C93.3923 33.274 93.4363 33.274 93.4803 33.252C93.5023 33.252 93.5463 33.186 93.5463 33.164C93.5683 33.142 93.5903 33.098 93.6123 33.076C93.8983 32.834 94.1843 32.614 94.5143 32.416C94.6683 32.306 94.8003 32.218 94.9543 32.108C95.0423 32.042 95.1303 31.998 95.1963 31.932C95.2623 31.888 95.3063 31.844 95.3723 31.8C95.4603 31.756 95.5483 31.734 95.6143 31.712C95.6363 31.69 95.6363 31.69 95.6583 31.69C95.7683 31.624 95.9003 31.536 96.0543 31.404C96.1643 31.316 96.2523 31.25 96.3403 31.184C96.5603 31.03 96.7803 30.898 97.0003 30.744C97.3523 30.502 97.6823 30.26 98.0123 30.018C98.1663 29.864 98.3203 29.754 98.5183 29.666C98.7383 29.556 98.9363 29.424 99.0903 29.27C99.1563 29.204 99.2443 29.138 99.3323 29.072C99.3983 29.028 99.4643 28.984 99.5523 28.918C99.8163 28.764 100.102 28.566 100.124 28.324C100.124 28.258 100.102 28.214 100.058 28.214C99.9043 28.214 99.7723 28.324 99.6623 28.434C99.5523 28.522 99.4643 28.61 99.3763 28.61L99.2663 28.588C99.2003 28.588 99.1563 28.456 99.0903 28.456C98.9583 28.5 98.9363 28.632 98.8923 28.742C98.8043 28.896 98.6943 28.962 98.5843 29.05C98.4743 29.116 98.3863 29.182 98.2763 29.248C98.0783 29.402 97.8803 29.534 97.6603 29.644C97.6383 29.666 97.6163 29.666 97.5943 29.666C97.3083 29.776 97.0663 29.864 96.8243 30.106C96.3623 30.48 95.8563 30.788 95.3283 31.074C95.1743 31.162 95.0203 31.25 94.8663 31.338C94.7783 31.382 94.6903 31.426 94.6023 31.47C94.3383 31.58 94.0963 31.734 93.8763 31.91C93.6123 32.152 93.3263 32.372 92.9963 32.57C92.9303 32.592 92.8423 32.636 92.7763 32.68C92.6663 32.746 92.5783 32.812 92.4683 32.856C92.3803 32.878 92.2923 32.9 92.2263 32.9C92.1823 32.9 92.1163 32.9 92.0503 32.922C91.6763 32.966 91.8523 33.076 91.5883 33.34C91.4123 33.45 91.2143 33.582 91.0383 33.604L90.7743 33.582C90.7083 33.604 90.6203 33.692 90.5323 33.802C90.4443 33.89 90.3563 33.956 90.2683 34.022C90.0703 34.154 89.8503 34.242 89.6303 34.286C89.5643 34.308 89.4763 34.352 89.3883 34.374C89.1463 34.44 88.9263 34.528 88.7283 34.616C88.5743 34.682 88.3983 34.726 88.2443 34.792C88.1783 34.792 88.1343 34.858 88.0463 34.88C87.9583 34.946 87.9143 34.99 87.8483 34.99C87.7603 34.99 87.7383 34.946 87.7163 34.924C87.7163 34.902 87.7163 34.88 87.6503 34.858C87.5183 34.814 87.5403 34.792 87.4743 34.792C87.3203 34.814 87.2543 34.88 87.1883 34.902C87.1003 34.968 86.9903 35.012 86.7923 35.034C86.2643 35.034 85.5383 34.616 85.2083 34.198C84.9223 33.802 84.7683 33.384 84.7683 32.966C84.7683 32.812 84.7903 32.68 84.8123 32.548C84.8563 32.306 85.1643 30.898 85.4723 30.898H85.4943V30.854C85.4943 30.524 85.6483 30.282 85.8463 30.018C85.9123 29.908 85.9783 29.776 86.0443 29.666C86.2643 29.248 86.5063 28.83 86.7483 28.412C86.8803 28.214 87.0343 27.994 87.1883 27.796C87.2543 27.686 87.3423 27.598 87.4083 27.488C87.5403 27.312 87.6723 27.136 87.7823 26.96C87.9363 26.74 88.0683 26.542 88.2223 26.344C88.2883 26.278 88.3543 26.212 88.4203 26.146C88.6623 25.948 88.9263 25.662 88.9263 25.376C88.9043 25.09 88.6623 24.936 88.4203 24.936C88.3103 24.936 88.2003 24.958 88.0903 25.024C87.9363 25.134 87.8043 25.31 87.6943 25.552C87.6283 25.684 87.5403 25.794 87.4743 25.882C86.9463 26.608 86.5503 27.18 86.2643 27.598C85.9783 28.016 85.5823 28.632 85.1203 29.402C85.0983 29.468 85.0543 29.534 85.0103 29.6C84.9443 29.732 84.8783 29.864 84.7903 29.996C84.7243 30.106 84.6803 30.216 84.6583 30.326C84.6363 30.392 84.5923 30.48 84.5703 30.546C84.5043 30.7 84.4163 30.832 84.3503 30.986C84.1963 31.228 84.0863 31.47 83.9983 31.734C83.8223 32.196 83.7343 32.658 83.7343 33.12C83.7343 33.67 83.9323 34.198 84.3063 34.704C84.6803 35.21 85.1423 35.584 85.6923 35.826C85.7583 35.848 85.8463 35.87 85.9563 35.892C86.1103 35.914 86.2423 35.958 86.3303 36.046C86.3963 36.068 86.5063 36.09 86.6383 36.09ZM92.2703 21.13C92.5343 21.13 92.8203 21.064 93.1503 20.932C93.4803 20.822 93.6343 20.624 93.6343 20.382C93.6343 20.118 93.5463 20.052 93.3923 20.052C93.3263 20.052 93.2603 20.074 93.1943 20.096C93.1283 20.118 93.0623 20.118 92.9963 20.118C92.9083 20.096 92.8203 20.096 92.7543 20.074C92.6443 20.052 92.5123 20.03 92.3583 20.03C92.1603 20.03 91.9843 19.986 91.8083 19.92C91.6983 19.876 91.5883 19.81 91.4783 19.744C91.3243 19.59 91.1703 19.524 90.9723 19.524C90.6423 19.546 90.3123 19.788 90.3123 20.118C90.3783 20.448 90.6643 20.712 91.0163 20.778C91.0823 20.8 91.1483 20.8 91.2143 20.8C91.2803 20.822 91.3683 20.844 91.4783 20.866C91.5443 20.888 91.5883 20.932 91.6543 20.954C91.8083 21.042 91.9403 21.13 92.2703 21.13ZM94.5661 36.794C94.7421 36.794 95.0941 36.662 95.2921 36.574C95.3361 36.574 95.3581 36.574 95.3801 36.552C95.6221 36.464 95.9301 36.354 96.1281 36.2C96.1941 36.156 96.2601 36.09 96.3041 36.024C96.3481 35.958 96.3921 35.914 96.4581 35.848C96.5461 35.782 96.6561 35.738 96.7661 35.672C97.0081 35.562 97.2061 35.43 97.3601 35.254C97.4261 35.188 97.4481 35.122 97.4701 35.056C97.4921 34.99 97.5361 34.924 97.5801 34.858C97.6901 34.77 97.8441 34.748 97.9981 34.594C98.0641 34.506 98.1081 34.374 98.1741 34.286C98.2841 34.132 98.4161 34 98.5701 33.89C98.6801 33.78 98.7901 33.692 98.9001 33.582L100.528 31.822C101.056 31.272 101.628 30.7 102.156 30.15C102.178 30.128 102.2 30.106 102.222 30.084C102.376 29.908 102.574 29.732 102.772 29.732C102.948 29.732 103.124 29.886 103.124 30.04C103.124 30.128 103.102 30.216 103.036 30.304C103.014 30.37 102.992 30.414 102.97 30.458C102.86 30.898 102.794 31.36 102.794 31.844C102.794 32.13 102.816 32.416 102.86 32.68C102.948 33.318 103.146 34.022 103.74 34.396C104.202 34.682 104.686 34.836 105.192 34.836C105.698 34.814 106.05 34.682 106.512 34.418C106.556 34.396 106.6 34.374 106.644 34.352C106.754 34.286 106.886 34.198 106.996 34.132C107.128 34.022 107.282 33.934 107.436 33.846C107.546 33.78 107.678 33.758 107.788 33.758C107.942 33.758 108.052 33.736 108.162 33.648C108.162 33.648 108.184 33.626 108.184 33.56C108.184 33.494 108.206 33.428 108.228 33.406C108.382 33.208 108.602 33.032 108.844 32.922C108.998 32.834 109.174 32.724 109.328 32.614C109.372 32.57 109.416 32.526 109.438 32.482C109.46 32.416 109.504 32.372 109.548 32.328C109.57 32.306 109.614 32.306 109.658 32.306C109.724 32.284 109.812 32.262 109.834 32.24C109.922 32.152 110.01 31.932 110.098 31.822C110.34 31.514 110.626 31.25 110.956 31.008C111.066 30.898 111.198 30.81 111.308 30.7C111.418 30.612 111.528 30.546 111.594 30.524C111.682 30.458 111.77 30.436 111.858 30.26C111.968 30.018 112.122 29.82 112.298 29.666C112.32 29.644 112.342 29.644 112.364 29.622C112.65 29.424 113.53 28.742 113.53 28.456C113.508 28.368 113.464 28.346 113.354 28.346C113.244 28.346 113.09 28.412 112.936 28.478C112.914 28.5 112.87 28.5 112.848 28.522C112.738 28.588 112.65 28.632 112.54 28.676C112.43 28.742 112.32 28.786 112.21 28.852C112.1 28.94 112.034 29.05 111.968 29.16C111.946 29.248 111.902 29.336 111.836 29.402C111.748 29.468 111.638 29.534 111.528 29.6C111.418 29.622 111.33 29.666 111.264 29.732C111.198 29.798 111.154 29.864 111.11 29.93C111.088 29.996 111.044 30.062 110.978 30.128C110.912 30.194 110.824 30.238 110.758 30.282C110.692 30.326 110.648 30.37 110.604 30.392L109.966 30.876C109.856 30.964 109.768 31.052 109.68 31.14C109.57 31.272 109.46 31.382 109.306 31.492C109.196 31.558 109.086 31.646 108.976 31.712C108.822 31.8 108.646 31.91 108.492 32.02C108.404 32.086 108.316 32.174 108.25 32.262C108.052 32.504 107.854 32.658 107.568 32.724L107.238 32.702C107.15 32.724 107.106 32.79 107.04 32.812C107.018 32.856 106.974 32.878 106.908 32.9C106.842 32.922 106.754 32.966 106.688 32.988C106.534 33.054 106.402 33.12 106.248 33.208C106.16 33.274 105.874 33.626 105.698 33.626C105.632 33.604 105.588 33.538 105.566 33.472C105.544 33.384 105.5 33.318 105.412 33.318C105.324 33.318 105.302 33.406 105.302 33.494C105.302 33.582 105.258 33.692 105.148 33.692C105.016 33.692 105.06 33.56 104.95 33.56C104.884 33.538 104.818 33.538 104.752 33.538C104.708 33.516 104.664 33.516 104.62 33.494C104.422 33.472 104.202 33.384 104.048 33.208C103.85 32.944 103.762 32.526 103.762 32.086C103.762 31.778 103.784 31.514 103.828 31.272C103.85 31.118 103.894 30.986 103.96 30.876C104.004 30.766 104.048 30.634 104.07 30.48V30.216C104.07 30.128 104.07 30.04 104.092 29.974C104.114 29.93 104.136 29.886 104.158 29.864C104.202 29.82 104.224 29.776 104.246 29.732C104.268 29.622 104.29 29.49 104.312 29.336C104.312 29.182 104.334 29.028 104.4 28.874C104.422 28.786 104.466 28.698 104.51 28.61C104.664 28.324 104.73 28.06 104.73 27.84C104.73 27.73 104.686 27.62 104.576 27.532C104.488 27.466 104.4 27.422 104.334 27.4C104.224 27.378 104.136 27.356 104.136 27.114C104.136 26.872 104.224 26.608 104.224 26.366C104.224 26.124 104.18 25.97 104.07 25.728C103.894 25.134 103.652 24.738 103.102 24.54C103.08 24.54 103.036 24.562 102.97 24.606C102.904 24.672 102.772 24.738 102.618 24.804C102.354 24.914 102.222 25.046 102.046 25.244C101.87 25.442 101.672 25.596 101.474 25.75C101.21 25.948 100.968 26.168 100.77 26.454C100.594 26.74 100.396 27.004 100.154 27.246C100.088 27.312 100.044 27.356 99.9781 27.4C99.8901 27.466 99.8021 27.532 99.7361 27.62C99.6921 27.686 99.6481 27.774 99.6041 27.84C99.4941 28.104 99.2521 28.346 99.0541 28.544C98.9441 28.654 98.8341 28.786 98.7241 28.896C98.5261 29.094 98.3721 29.336 98.2181 29.6C98.0421 29.908 97.8441 30.172 97.6241 30.392L97.5801 30.414L97.4921 30.392C97.4701 30.392 97.4261 30.414 97.4041 30.436C97.3821 30.458 97.3821 30.524 97.3821 30.546C97.3821 30.568 97.3821 30.59 97.3601 30.612C97.2721 30.766 97.1621 30.92 97.0521 31.074C96.9861 31.14 96.9421 31.228 96.8761 31.294C96.8101 31.404 96.7221 31.536 96.6341 31.646C96.2381 32.262 95.7761 32.9 95.2481 33.582C95.1381 33.714 95.0721 33.846 95.0061 34C94.9401 34.154 94.8521 34.286 94.7641 34.418C94.7421 34.484 94.6981 34.528 94.6541 34.572C94.5221 34.77 94.3901 34.946 94.2581 35.1C94.2141 35.122 94.1701 35.144 94.1041 35.166C94.0381 35.232 93.9721 35.254 93.9501 35.276C93.8841 35.386 93.8621 35.474 93.8841 35.584C93.8621 35.628 93.8621 35.672 93.8621 35.716C93.8401 35.782 93.8401 35.826 93.8181 35.87C93.7521 35.98 93.7301 36.068 93.7301 36.178C93.7301 36.244 93.7521 36.332 93.8181 36.42C93.9061 36.574 94.0381 36.618 94.1921 36.64C94.3021 36.662 94.3901 36.706 94.4561 36.772C94.4781 36.794 94.5221 36.794 94.5661 36.794ZM95.5781 35.276C95.3361 35.276 95.2261 35.254 95.2041 35.188C95.2041 35.034 95.4681 34.638 95.5341 34.572C95.9521 33.934 96.3921 33.34 96.8321 32.636C96.8981 32.526 96.9861 32.46 97.0521 32.394C97.1181 32.35 97.1621 32.306 97.2281 32.24C97.3601 32.064 97.4921 31.866 97.6021 31.668C97.7341 31.426 97.8661 31.228 98.0201 31.03C98.1301 30.876 98.2621 30.722 98.3721 30.568C98.5261 30.326 98.7021 30.106 98.9001 29.908C99.0101 29.776 99.1201 29.644 99.2081 29.512C99.3401 29.314 99.4941 29.138 99.6921 28.962C99.9781 28.72 100.22 28.434 100.44 28.148C100.506 28.038 100.594 27.95 100.66 27.862C100.682 27.818 100.726 27.774 100.748 27.73C100.836 27.576 100.946 27.444 101.056 27.334C101.166 27.224 101.298 27.18 101.408 27.092C101.474 27.026 101.54 26.938 101.584 26.85C101.65 26.74 101.716 26.652 101.804 26.564C101.87 26.52 101.914 26.476 101.958 26.432C102.068 26.322 102.156 26.234 102.266 26.168C102.31 26.146 102.376 26.102 102.442 26.036C102.618 25.926 102.772 25.794 102.926 25.794C102.97 25.794 103.014 25.816 103.058 25.838C103.146 25.926 103.19 26.344 103.19 26.476C103.168 26.542 103.146 26.608 103.124 26.652C103.102 26.674 103.102 26.718 103.08 26.74C103.058 26.872 103.058 27.004 103.058 27.136V27.334C103.058 27.95 102.662 28.522 102.2 29.138C102.134 29.226 102.068 29.314 102.002 29.402C101.848 29.578 101.694 29.754 101.54 29.908C101.386 30.04 101.254 30.172 101.122 30.326C100.99 30.458 100.858 30.568 100.726 30.678C100.616 30.744 100.528 30.832 100.44 30.92C100.286 31.074 100.132 31.228 99.9781 31.404C99.8681 31.558 99.7361 31.69 99.6041 31.822C99.4281 32.02 99.2301 32.196 99.0321 32.35C98.8561 32.504 98.6801 32.658 98.5261 32.812L97.5361 33.736C97.4261 33.846 97.3381 33.934 97.2281 34.044C97.0521 34.242 96.8541 34.44 96.6121 34.594C96.4581 34.682 96.3481 34.792 96.2381 34.902C96.2161 34.924 96.1941 34.946 96.1721 34.968C96.1061 35.012 96.0401 35.056 95.9521 35.078C95.8421 35.122 95.7321 35.188 95.6661 35.276H95.5781ZM151.002 48.806C151.2 48.806 151.552 48.674 151.574 48.432C151.574 48.256 151.442 48.168 151.266 48.08C151.156 48.036 151.09 47.97 151.024 47.904C150.848 47.662 150.716 47.244 150.694 46.958C150.694 46.87 150.716 46.848 150.738 46.782C150.76 46.76 150.782 46.716 150.804 46.672C150.804 46.606 150.738 46.562 150.716 46.496C150.672 46.452 150.65 46.408 150.628 46.364C150.584 46.188 150.562 46.012 150.562 45.814V45.264C150.562 44.802 150.584 44.34 150.65 43.922C150.672 43.768 150.672 43.636 150.694 43.504C150.76 42.756 150.892 42.03 151.068 41.326C151.178 40.908 151.332 40.468 151.486 40.006C151.574 39.72 151.662 39.456 151.75 39.192C151.992 38.466 152.256 37.74 152.542 37.036C153.158 35.474 153.818 33.956 154.544 32.46C154.72 32.108 154.896 31.756 155.072 31.404C155.578 30.326 156.128 29.248 156.722 28.214C156.876 27.928 157.052 27.62 157.206 27.312C157.404 26.916 157.602 26.52 157.844 26.146C157.888 26.058 157.932 25.992 157.998 25.926C158.042 25.838 158.086 25.75 158.13 25.684C158.152 25.618 158.196 25.53 158.218 25.464C158.24 25.376 158.262 25.288 158.328 25.222C158.438 25.112 158.614 25.09 158.79 25.068C158.856 25.068 158.922 25.068 158.988 25.046C159.12 25.024 159.252 25.024 159.362 25.002C159.714 24.958 160.066 24.936 160.418 24.936C160.682 24.914 160.924 24.848 161.166 24.782C161.254 24.76 161.342 24.738 161.43 24.716C161.628 24.694 161.804 24.672 162.002 24.672C162.354 24.672 162.706 24.65 163.036 24.606C163.278 24.584 163.52 24.562 163.762 24.54C164.202 24.54 164.642 24.54 165.06 24.518C165.126 24.496 165.17 24.496 165.236 24.474C165.346 24.452 165.456 24.43 165.544 24.43C165.632 24.43 165.698 24.452 165.764 24.474C165.83 24.496 165.874 24.496 165.918 24.496C166.05 24.496 166.204 24.474 166.358 24.43C166.49 24.408 166.6 24.386 166.71 24.386L167.04 24.408C167.15 24.408 167.238 24.386 167.238 24.298C167.194 24.078 166.512 24.012 166.314 24.012C166.204 24.012 166.094 24.034 166.006 24.078C165.94 24.1 165.83 24.122 165.72 24.122C165.61 24.122 165.522 24.122 165.412 24.1C165.368 24.078 165.324 24.078 165.258 24.078C164.708 24.078 164.136 24.1 163.586 24.144C163.41 24.166 163.234 24.166 163.058 24.188C162.904 24.21 162.75 24.232 162.596 24.276C162.398 24.342 162.244 24.364 162.09 24.364C161.826 24.364 161.738 24.232 161.496 24.232C161.342 24.232 161.21 24.254 161.078 24.32C161.034 24.342 160.99 24.342 160.924 24.364C160.682 24.386 160.462 24.408 160.22 24.43C160.044 24.43 159.868 24.43 159.692 24.452C159.626 24.452 159.538 24.452 159.45 24.474C159.252 24.518 159.054 24.54 158.9 24.54L158.724 24.518C158.944 24.276 159.12 23.968 159.274 23.616C159.362 23.418 159.45 23.22 159.56 23.066C159.868 22.538 160.154 22.01 160.396 21.46C160.484 21.262 160.572 21.108 160.682 20.954C160.814 20.778 160.924 20.58 160.99 20.36C161.1 20.074 161.232 19.81 161.43 19.524C161.54 19.37 161.65 19.194 161.738 19.04C162.178 18.27 162.596 17.478 162.992 16.708C163.234 16.246 163.454 15.806 163.696 15.388C163.872 15.102 164.048 14.794 164.202 14.486C164.268 14.332 164.356 14.2 164.466 14.09C164.532 14.002 164.576 13.914 164.642 13.826C164.708 13.716 164.752 13.606 164.796 13.474C164.84 13.364 164.884 13.276 164.928 13.188C165.17 12.792 165.412 12.396 165.632 12C165.83 11.648 166.05 11.296 166.248 10.944C166.71 10.218 167.15 9.492 167.59 8.766C168.206 7.776 168.822 6.764 169.46 5.774C169.592 5.576 169.746 5.356 169.9 5.136C170.098 4.872 170.274 4.608 170.428 4.344C170.67 3.948 170.934 3.596 171.242 3.288C171.33 3.178 171.418 3.046 171.484 2.892C171.55 2.782 171.594 2.694 171.66 2.584C171.726 2.496 171.792 2.408 171.88 2.298C172.232 1.88 172.628 1.374 172.628 0.911999C172.606 0.515998 172.452 0.318 172.166 0.318C171.66 0.318 170.956 0.801999 170.67 1.066C170.186 1.462 169.702 1.836 169.24 2.21C168.866 2.496 168.514 2.782 168.162 3.068C167.348 3.75 166.556 4.454 165.786 5.18C165.61 5.334 165.434 5.466 165.258 5.598C165.06 5.752 164.862 5.928 164.664 6.104C164.51 6.258 164.356 6.412 164.202 6.61C164.048 6.808 163.894 7.006 163.696 7.16C163.608 7.226 163.52 7.27 163.432 7.336C163.3 7.402 163.19 7.468 163.08 7.578C163.014 7.644 162.97 7.732 162.926 7.82C162.86 7.93 162.794 8.018 162.706 8.106C162.64 8.172 162.552 8.216 162.464 8.282C162.354 8.348 162.266 8.436 162.156 8.524C161.804 8.854 161.496 9.162 161.232 9.448C160.726 9.976 160.132 10.526 159.472 11.076C158.79 11.67 158.174 12.286 157.58 12.924C157.404 13.1 157.228 13.276 157.052 13.43C156.81 13.628 156.59 13.87 156.37 14.112C156.018 14.486 155.644 14.86 155.27 15.19C153.026 17.258 150.892 19.326 148.868 21.394C148.714 21.548 148.56 21.702 148.406 21.856C147.592 22.67 146.822 23.396 146.14 24.056C145.502 24.65 144.864 25.288 144.204 25.948C144.094 26.036 143.984 26.102 143.874 26.168C143.852 26.19 143.808 26.19 143.786 26.212C143.698 26.278 143.61 26.366 143.544 26.454C143.456 26.586 143.346 26.696 143.236 26.762C143.038 26.85 142.73 26.894 142.488 26.916C142.466 26.916 142.444 26.916 142.422 26.916C142.224 26.938 142.026 26.982 141.828 27.048C141.542 27.136 141.278 27.18 140.992 27.18H140.904C140.53 27.18 140.134 27.246 139.716 27.356C139.628 27.378 139.54 27.4 139.452 27.422C138.726 27.554 138.066 27.664 137.472 27.752C136.878 27.862 136.174 27.95 135.36 28.016L134.964 27.994C134.766 27.994 134.59 28.038 134.48 28.126C134.348 28.192 134.216 28.236 134.062 28.258C133.732 28.28 133.38 28.324 133.05 28.346C132.61 28.368 132.17 28.39 131.708 28.456C131.202 28.522 130.718 28.566 130.234 28.632C129.816 28.698 129.376 28.742 128.914 28.808C126.604 29.028 124.338 29.138 122.072 29.138C121.808 29.138 121.566 29.116 121.324 29.05C121.214 29.028 121.126 29.028 121.016 29.006C120.862 28.984 120.73 28.984 120.576 28.984C119.74 29.006 118.948 28.874 118.222 28.61C118.112 28.544 117.958 28.522 117.804 28.5C117.54 28.5 117.298 28.434 117.144 28.236C117.1 28.17 117.078 28.126 117.078 28.082C117.078 27.972 117.21 27.972 117.21 27.862L117.188 27.796C117.144 27.752 116.814 27.598 116.792 27.598C116.638 27.532 116.506 27.51 116.374 27.51C116.132 27.51 115.89 27.642 115.89 27.972C115.89 28.17 116.022 28.412 116.132 28.566C116.22 28.654 116.264 28.698 116.33 28.698C116.418 28.72 116.55 28.83 116.638 28.94C116.704 29.028 116.792 29.094 116.902 29.16C117.87 29.622 119.102 29.732 120.136 29.798C120.158 29.798 120.202 29.798 120.224 29.798C120.4 29.82 120.576 29.82 120.774 29.842C121.016 29.864 121.28 29.886 121.544 29.886C121.786 29.886 121.984 29.886 122.182 29.864C122.424 29.842 122.732 29.842 123.062 29.842L123.942 29.864C124.976 29.864 126.01 29.798 127.044 29.666C127.22 29.644 127.396 29.622 127.572 29.622C127.858 29.6 128.122 29.578 128.364 29.512C128.738 29.424 129.134 29.38 129.508 29.38H129.926C130.212 29.38 130.498 29.336 130.828 29.27C130.96 29.248 131.092 29.226 131.202 29.204C131.62 29.16 132.06 29.094 132.5 29.028C133.226 28.918 133.974 28.83 134.744 28.764C135.294 28.742 135.822 28.654 136.328 28.5C136.834 28.368 137.362 28.28 137.89 28.258C137.912 28.258 137.912 28.258 137.934 28.258C138.308 28.214 138.704 28.148 139.078 28.038C139.276 28.016 139.452 27.972 139.65 27.928C140.068 27.862 140.464 27.796 140.882 27.752C141.432 27.686 141.982 27.598 142.532 27.488C142.532 27.642 142.312 27.796 142.136 27.95C142.07 27.994 142.026 28.038 142.004 28.06C141.806 28.214 141.63 28.412 141.454 28.632C141.344 28.764 141.212 28.896 141.08 29.006C140.992 29.072 140.904 29.16 140.838 29.226C140.816 29.248 140.816 29.248 140.794 29.27C140.728 29.336 140.684 29.402 140.596 29.402L140.42 29.38C140.42 29.38 140.354 29.644 140.354 29.688C140.332 29.754 140.266 29.82 140.178 29.864C140.134 29.886 140.09 29.93 140.068 29.952C139.76 30.238 139.43 30.546 139.1 30.832C138.748 31.118 138.418 31.426 138.088 31.756C137.78 32.064 137.472 32.372 137.142 32.68C136.922 32.9 136.702 33.12 136.504 33.318C136.482 33.34 136.438 33.384 136.416 33.406C136.196 33.67 135.954 33.89 135.69 34.088C135.602 34.154 135.426 34.198 135.338 34.264C135.272 34.33 135.272 34.374 135.25 34.396C135.25 34.418 135.228 34.462 135.206 34.506C134.964 34.77 134.678 35.012 134.37 35.254C134.194 35.386 134.018 35.518 133.864 35.672C133.644 35.87 133.424 36.068 133.226 36.266C132.94 36.574 132.632 36.86 132.302 37.124C131.972 37.41 131.642 37.696 131.312 38.004C130.938 38.378 130.564 38.686 130.19 38.972C130.036 39.082 129.904 39.126 129.75 39.236C129.706 39.28 129.662 39.324 129.64 39.346C129.618 39.412 129.552 39.456 129.486 39.5C129.42 39.544 129.376 39.588 129.31 39.61C129.222 39.632 129.156 39.698 129.09 39.764C129.024 39.808 128.98 39.874 128.958 39.94C128.936 40.006 128.892 40.05 128.848 40.116C128.782 40.16 128.716 40.204 128.65 40.226C128.584 40.27 128.496 40.314 128.43 40.38C127.968 40.754 127.506 41.128 127.022 41.48C126.824 41.634 126.626 41.766 126.428 41.92C126.098 42.162 125.768 42.404 125.438 42.624C125.24 42.734 125.02 42.866 124.822 42.976C124.492 43.13 124.184 43.306 123.898 43.504C123.348 43.922 122.754 44.252 122.116 44.494C121.962 44.538 121.83 44.582 121.72 44.626C121.302 44.802 120.862 44.912 120.4 44.934C120.114 44.934 119.74 44.758 119.388 44.758C119.102 44.758 118.838 45 118.838 45.33C118.838 45.792 119.52 46.012 119.96 46.012C120.202 46.012 120.4 45.968 120.598 45.88C120.708 45.858 120.796 45.814 120.906 45.792C121.016 45.77 121.148 45.748 121.28 45.726C121.434 45.704 121.61 45.682 121.764 45.616C122.226 45.418 122.71 45.11 123.172 44.912C123.502 44.758 123.81 44.56 124.096 44.362C124.316 44.186 124.558 44.032 124.8 43.9C124.998 43.79 125.086 43.724 125.262 43.548C125.394 43.416 125.548 43.35 125.702 43.262C126.67 42.646 127.55 41.964 128.364 41.194C128.518 41.062 128.65 40.952 128.804 40.864C129.09 40.666 129.354 40.446 129.596 40.248C129.904 39.962 130.212 39.72 130.542 39.5C130.696 39.39 130.85 39.258 130.96 39.104C131.048 38.994 131.136 38.906 131.246 38.796C131.488 38.598 131.73 38.378 131.972 38.18C132.236 37.982 132.478 37.784 132.72 37.586C133.05 37.278 133.358 36.97 133.666 36.662C134.26 36.024 134.876 35.452 135.514 34.924C135.756 34.726 135.976 34.506 136.196 34.286C136.416 34.088 136.636 33.868 136.878 33.67C137.208 33.406 137.494 33.098 137.78 32.768C137.89 32.658 138 32.526 138.11 32.416C138.55 31.976 139.012 31.558 139.474 31.14C140.53 30.172 141.542 29.182 142.532 28.148C143.302 27.356 144.204 27.158 145.326 27.048C145.59 27.004 145.876 26.96 146.162 26.916C147.24 26.718 148.296 26.564 149.33 26.41C150.364 26.256 151.376 26.102 152.366 25.904C153.312 25.75 154.192 25.618 155.05 25.53C155.446 25.486 155.842 25.442 156.216 25.398C156.392 25.398 156.48 25.354 156.59 25.354C156.744 25.332 157.008 25.288 157.734 25.222C157.712 25.288 157.624 25.398 157.536 25.486C157.47 25.574 157.404 25.64 157.382 25.684C157.118 26.102 156.898 26.52 156.744 26.938C156.744 26.938 156.744 26.938 156.744 26.96C156.656 27.158 156.524 27.29 156.436 27.466C156.062 28.192 155.688 28.918 155.314 29.622C154.808 30.546 154.324 31.47 153.862 32.416C153.708 32.746 153.532 33.054 153.378 33.384C153.18 33.758 152.982 34.154 152.806 34.55C152.784 34.616 152.74 34.682 152.718 34.748C151.948 36.332 151.31 37.96 150.782 39.61C150.606 40.182 150.452 40.754 150.298 41.326C150.21 41.612 150.122 41.898 150.056 42.184C149.99 42.426 149.968 42.69 149.968 42.932C149.968 43.108 149.946 43.284 149.924 43.46C149.902 43.592 149.88 43.724 149.858 43.834C149.704 44.362 149.638 44.934 149.638 45.528C149.638 45.726 149.66 45.902 149.704 46.078C149.748 46.232 149.77 46.408 149.77 46.562L149.748 46.936C149.748 47.244 149.858 47.574 150.056 47.926C150.1 48.014 150.144 48.102 150.188 48.212C150.298 48.564 150.584 48.762 151.002 48.806ZM149.638 21.306C149.704 21.24 149.77 21.174 149.836 21.108C149.968 20.998 150.1 20.888 150.21 20.734C150.386 20.492 150.584 20.25 150.804 20.052C150.892 19.986 150.98 19.92 151.046 19.854C151.2 19.744 151.354 19.59 151.486 19.392C151.64 19.172 151.816 18.996 152.036 18.886C152.234 18.776 152.388 18.622 152.52 18.446C152.652 18.292 152.784 18.138 152.938 18.028C152.96 18.006 152.96 18.006 152.982 17.984C153.136 17.83 153.29 17.698 153.422 17.544C153.62 17.302 153.862 17.082 154.104 16.884C154.566 16.488 155.006 16.07 155.424 15.63C155.732 15.3 156.062 14.97 156.392 14.662C156.766 14.332 157.118 13.98 157.448 13.628C157.888 13.166 158.35 12.726 158.812 12.33C159.23 11.978 159.582 11.604 159.89 11.208C160.044 11.054 160.22 10.9 160.418 10.768C160.594 10.658 160.748 10.548 160.902 10.394L163.19 8.172C163.256 8.106 163.3 8.04 163.366 7.974C163.674 7.644 164.004 7.358 164.356 7.072C164.488 6.962 164.598 6.83 164.708 6.72C164.774 6.632 164.84 6.544 164.906 6.478C165.016 6.368 165.126 6.28 165.28 6.192C165.39 6.126 165.478 6.038 165.588 5.95L166.468 5.224C166.578 5.136 166.666 5.048 166.776 4.938C167.018 4.696 167.282 4.476 167.568 4.278C167.722 4.146 167.876 4.014 167.986 3.882C168.096 3.772 168.206 3.662 168.316 3.552C168.426 3.442 168.536 3.376 168.69 3.31C168.756 3.266 168.822 3.222 168.888 3.2C169.196 3.002 169.504 2.782 169.834 2.54C170.12 2.32 170.428 2.1 170.758 1.858C170.78 1.836 171.022 1.572 171.11 1.572C171.176 1.572 171.22 1.616 171.22 1.682C171.22 1.902 170.802 2.342 170.67 2.562C170.626 2.584 170.604 2.606 170.604 2.628C170.494 2.76 170.428 2.892 170.362 3.046C170.296 3.156 170.23 3.288 170.164 3.398C170.01 3.64 169.856 3.882 169.702 4.124C169.438 4.52 169.196 4.916 168.998 5.334C168.734 5.818 168.426 6.302 168.052 6.808C167.612 7.38 167.216 7.996 166.864 8.656C166.82 8.744 166.776 8.832 166.754 8.92C166.688 9.074 166.6 9.228 166.49 9.404C166.424 9.47 166.38 9.558 166.314 9.624C166.072 9.954 165.852 10.284 165.698 10.636C165.588 10.878 165.456 11.098 165.302 11.318C165.28 11.362 165.258 11.406 165.236 11.428C165.148 11.582 165.082 11.714 165.038 11.868C165.016 11.956 164.972 12.044 164.928 12.132C164.884 12.242 164.818 12.352 164.752 12.44C164.708 12.506 164.664 12.572 164.62 12.638C164.554 12.77 164.488 12.902 164.378 13.012C164.356 13.078 164.312 13.122 164.268 13.188C163.872 13.804 163.52 14.442 163.212 15.124C163.036 15.498 162.838 15.894 162.64 16.268L160.176 20.646C160.088 20.8 159.978 20.976 159.846 21.13C159.648 21.372 159.516 21.614 159.428 21.878C159.406 21.944 159.406 21.988 159.406 22.054C159.384 22.164 159.362 22.252 159.318 22.34C159.296 22.406 159.252 22.45 159.186 22.494C159.142 22.538 159.098 22.582 159.076 22.648L158.768 23.198C158.702 23.308 158.636 23.44 158.592 23.572C158.526 23.726 158.46 23.88 158.372 24.034C158.328 24.1 158.284 24.188 158.218 24.254C158.108 24.386 158.02 24.54 157.954 24.694L157.8 24.672C157.646 24.672 157.514 24.694 157.36 24.76C157.206 24.826 157.052 24.848 156.898 24.848C156.524 24.848 156.172 24.87 155.864 24.936C155.49 25.024 155.138 25.068 154.764 25.09C154.522 25.112 154.258 25.156 153.994 25.2C153.4 25.288 152.784 25.354 152.19 25.42C151.772 25.464 151.354 25.53 150.958 25.618C150.76 25.662 150.54 25.706 150.342 25.75L148.582 26.014C148.56 26.036 148.538 26.036 148.516 26.058C148.45 26.08 148.428 26.102 148.362 26.102C148.318 26.102 148.12 25.948 148.142 25.948H148.12C148.032 25.948 147.944 25.992 147.856 26.058C147.79 26.124 147.724 26.146 147.658 26.168C147.02 26.322 146.382 26.432 145.722 26.454C145.436 26.454 145.128 26.498 144.842 26.608C144.556 26.696 144.27 26.74 143.984 26.762L149.638 21.306ZM172.147 36.838C172.499 36.838 172.807 36.75 173.093 36.552C173.181 36.508 173.269 36.464 173.357 36.442C173.467 36.398 173.577 36.332 173.687 36.266C173.797 36.156 173.907 36.002 174.017 35.848C174.083 35.76 174.149 35.672 174.215 35.584C174.215 35.584 174.215 35.584 174.237 35.562C174.259 35.474 174.369 35.364 174.457 35.298C174.523 35.232 174.567 35.232 174.633 35.232C174.677 35.232 174.721 35.21 174.765 35.188C174.875 35.1 174.941 34.99 175.007 34.836C175.073 34.704 175.161 34.594 175.249 34.506C175.337 34.396 175.447 34.374 175.535 34.374C175.601 34.396 175.689 34.374 175.755 34.33C175.821 34.264 175.865 34.176 175.887 34.022C175.909 33.912 175.953 33.824 175.997 33.758C176.195 33.516 176.393 33.296 176.635 33.098C176.701 33.032 176.745 32.988 176.811 32.944L178.241 31.558C178.395 31.426 178.527 31.294 178.659 31.14C178.857 30.898 179.099 30.678 179.341 30.48L180.837 29.336C180.903 29.27 180.991 29.226 181.057 29.16C181.497 28.83 181.959 28.5 182.465 28.478C183.081 28.478 183.191 29.16 183.213 29.688C183.235 29.754 183.235 29.798 183.235 29.864C183.345 30.546 183.411 31.206 183.455 31.866C183.521 32.988 184.291 33.78 185.457 33.868C185.919 33.868 186.315 33.626 186.733 33.362C186.843 33.296 186.975 33.208 187.085 33.142C187.371 32.966 187.657 32.79 187.943 32.614C188.141 32.482 188.361 32.35 188.559 32.218C188.845 32.042 188.977 31.822 189.263 31.668C189.417 31.602 189.571 31.514 189.703 31.404C189.879 31.294 190.011 31.206 190.165 31.118C190.319 31.008 190.473 30.876 190.627 30.766C190.715 30.678 190.781 30.568 190.847 30.458C190.891 30.348 190.957 30.26 191.045 30.172C191.243 29.974 191.441 29.82 191.683 29.688C192.035 29.49 192.387 29.248 192.563 28.808C192.629 28.742 192.673 28.588 192.673 28.478C192.673 28.368 192.629 28.346 192.541 28.28C192.541 28.28 192.541 28.28 192.519 28.28C192.453 28.28 192.453 28.346 192.387 28.434C192.365 28.478 192.343 28.522 192.321 28.544C192.211 28.61 192.101 28.654 191.991 28.676C191.925 28.676 191.859 28.698 191.793 28.72C191.727 28.764 191.661 28.808 191.617 28.874C191.595 28.896 191.551 28.94 191.507 28.962C191.287 29.16 191.045 29.336 190.781 29.49C190.451 29.688 190.165 29.908 189.901 30.194C189.725 30.348 189.549 30.48 189.373 30.634C189.131 30.81 188.867 30.964 188.581 31.118C188.251 31.294 187.921 31.514 187.635 31.756C187.481 31.91 187.349 31.932 187.239 31.998C187.173 32.02 187.107 32.042 187.019 32.086C186.909 32.13 186.821 32.196 186.733 32.262C186.623 32.35 186.535 32.416 186.425 32.46C186.095 32.658 185.743 32.768 185.413 32.768C184.973 32.768 184.577 32.504 184.489 31.998C184.423 31.734 184.379 31.47 184.313 31.206C184.291 31.008 184.269 30.832 184.269 30.634C184.247 30.392 184.225 30.15 184.181 29.908C184.115 29.578 184.071 29.226 184.049 28.896C184.027 28.72 183.961 28.588 183.895 28.478C183.851 28.412 183.807 28.346 183.763 28.258C183.741 28.214 183.741 28.17 183.719 28.126C183.631 27.928 183.565 27.796 183.301 27.686C183.103 27.62 182.927 27.576 182.729 27.576C181.849 27.576 180.903 28.28 180.133 28.896C180.089 28.94 180.045 28.984 180.001 29.006C179.759 29.204 179.583 29.468 179.319 29.666C179.055 29.842 178.813 30.04 178.593 30.282C178.483 30.392 178.373 30.48 178.263 30.59C177.955 30.92 177.625 31.206 177.295 31.47C177.229 31.514 177.163 31.558 177.141 31.58C177.053 31.602 176.899 31.712 176.811 31.888C176.789 31.91 176.767 31.954 176.745 31.998C176.635 32.108 176.503 32.24 176.393 32.35C176.327 32.416 176.239 32.482 176.173 32.548C176.107 32.57 176.063 32.658 175.997 32.746C175.931 32.812 175.865 32.878 175.843 32.9L175.733 32.922L175.623 32.9C175.557 32.9 175.535 32.922 175.447 33.01C175.447 33.208 175.381 33.34 175.227 33.428C175.073 33.67 174.809 33.912 174.523 34.088C174.479 34.11 174.435 34.132 174.413 34.154C174.325 34.22 174.237 34.286 174.127 34.396C174.061 34.462 173.973 34.55 173.907 34.638C173.797 34.748 173.709 34.858 173.599 34.946C173.401 35.1 173.115 35.188 172.873 35.386C172.851 35.408 172.807 35.43 172.785 35.474C172.697 35.562 172.587 35.672 172.499 35.672C172.433 35.672 172.411 35.628 172.389 35.54C172.389 35.452 172.455 35.276 172.543 35.166C172.565 35.078 172.587 35.012 172.609 34.99C172.719 34.726 172.895 34.506 173.005 34.242C173.203 33.824 173.445 33.406 173.687 32.988C173.797 32.812 173.885 32.636 173.995 32.482C174.039 32.394 174.083 32.306 174.127 32.218C174.325 31.822 174.501 31.47 174.699 31.14C174.963 30.678 175.249 30.238 175.535 29.776C175.909 29.204 176.261 28.632 176.569 28.038C176.635 27.928 176.679 27.84 176.701 27.752C176.767 27.576 176.877 27.4 176.987 27.246C177.141 27.07 177.163 26.96 177.229 26.762C177.229 26.74 177.229 26.74 177.229 26.74C177.405 26.278 177.647 25.86 177.933 25.464C178.351 24.848 178.681 24.166 178.967 23.44C179.121 23.044 179.297 22.67 179.495 22.296C179.605 22.076 179.693 21.878 179.803 21.68C179.935 21.416 180.067 21.152 180.199 20.866C180.265 20.712 180.309 20.536 180.353 20.382C180.375 20.272 180.419 20.184 180.441 20.074C180.485 19.964 180.529 19.876 180.573 19.788C180.661 19.612 180.727 19.436 180.771 19.238C180.793 19.04 180.815 18.82 180.815 18.622C180.815 17.764 180.485 16.95 179.583 16.95C178.703 17.038 178.219 17.302 177.493 17.72C177.449 17.742 177.405 17.786 177.361 17.808C177.119 17.962 176.877 18.094 176.635 18.226C176.327 18.402 176.019 18.578 175.733 18.754C175.579 18.864 175.425 18.952 175.271 19.062C174.897 19.282 174.545 19.524 174.215 19.81C174.171 19.832 174.127 19.876 174.105 19.942C174.061 20.008 174.017 20.052 173.973 20.096C173.885 20.162 173.709 20.162 173.621 20.228C173.467 20.294 173.335 20.404 173.203 20.514C173.137 20.58 173.049 20.624 172.983 20.668C172.477 21.042 171.971 21.416 171.465 21.834C170.563 22.516 169.705 23.286 168.913 24.1C168.825 24.21 168.715 24.32 168.605 24.452C168.275 24.87 167.901 25.266 167.439 25.332C167.175 25.332 167.087 25.156 166.823 25.134C166.581 25.134 166.405 25.332 166.295 25.53L165.591 26.542C165.481 26.696 165.437 26.828 165.437 26.982C165.415 27.048 165.393 27.136 165.371 27.246C165.327 27.4 165.239 27.554 165.129 27.708C165.063 27.796 164.997 27.884 164.931 27.994C164.909 28.06 164.887 28.104 164.865 28.17C164.843 28.258 164.821 28.346 164.777 28.434C164.755 28.456 164.733 28.456 164.711 28.478C164.667 28.5 164.623 28.522 164.601 28.566C164.579 28.61 164.579 28.654 164.557 28.698C164.535 28.764 164.535 28.808 164.513 28.852C164.491 28.874 164.447 28.896 164.425 28.918C164.381 28.94 164.337 28.984 164.293 29.028C164.227 29.138 164.183 29.248 164.161 29.358C164.139 29.446 164.095 29.534 164.073 29.622C163.963 29.886 163.831 30.128 163.677 30.37C163.523 30.612 163.391 30.876 163.259 31.14C163.149 31.382 163.017 31.646 162.885 31.888C162.863 31.932 162.819 31.976 162.797 32.042C162.687 32.262 162.577 32.482 162.445 32.68C162.379 32.768 162.335 32.856 162.269 32.966C162.027 33.318 161.807 33.714 161.785 34.066C161.785 34.418 161.961 34.572 162.203 34.572C162.445 34.572 162.687 34.418 162.841 34.154C162.951 33.89 163.083 33.626 163.237 33.362C163.369 33.12 163.501 32.856 163.611 32.592C163.677 32.438 163.765 32.284 163.853 32.174C163.897 32.086 163.941 31.998 164.007 31.91C164.073 31.756 164.139 31.624 164.183 31.47C164.227 31.36 164.271 31.25 164.315 31.14C164.733 30.37 165.217 29.644 165.723 28.962C166.053 28.522 166.383 28.06 166.669 27.598C166.779 27.444 166.867 27.334 166.977 27.246C167.263 27.004 167.483 26.652 167.725 26.366L168.297 25.75C168.385 25.662 168.473 25.596 168.583 25.53C168.737 25.42 168.869 25.31 168.979 25.2C169.749 24.254 170.629 23.396 171.575 22.604C171.817 22.428 172.037 22.23 172.235 22.032C172.521 21.79 172.807 21.57 173.093 21.35C173.379 21.174 173.643 20.976 173.907 20.778C174.149 20.58 174.413 20.382 174.699 20.206C175.073 19.942 175.469 19.7 175.887 19.48C176.085 19.37 176.305 19.238 176.525 19.106C176.723 18.996 176.921 18.864 177.119 18.732C177.295 18.622 177.493 18.49 177.691 18.38C177.735 18.358 177.779 18.336 177.823 18.314C178.241 18.05 178.747 17.764 179.275 17.764C179.759 17.764 180.001 17.984 180.001 18.446C180.001 18.732 179.935 19.018 179.825 19.304C179.715 19.634 179.605 19.942 179.473 20.228C179.363 20.47 179.253 20.734 179.143 21.02C179.121 21.108 179.099 21.196 179.077 21.284C179.055 21.416 179.011 21.548 178.945 21.658C178.835 21.812 178.769 21.966 178.747 22.12C178.725 22.186 178.681 22.274 178.659 22.384C178.527 22.714 178.373 23.022 178.197 23.308C177.999 23.594 177.845 23.924 177.713 24.276C177.559 24.782 177.251 25.42 176.833 25.772L176.855 25.816C176.855 26.014 176.459 26.806 176.393 26.894C176.327 27.048 176.239 27.18 176.129 27.29C176.063 27.378 175.997 27.466 175.931 27.576C175.821 27.774 175.711 27.994 175.623 28.192C175.601 28.236 175.601 28.28 175.579 28.324C175.425 28.698 175.205 29.05 174.963 29.402C174.897 29.512 174.809 29.644 174.743 29.754C174.589 29.996 174.457 30.216 174.325 30.436C174.149 30.7 173.973 30.964 173.819 31.228C173.753 31.36 173.687 31.492 173.621 31.624C173.577 31.778 173.511 31.932 173.401 32.086C173.181 32.416 172.983 32.746 172.785 33.12C172.609 33.45 172.411 33.78 172.213 34.11C171.905 34.616 171.663 35.144 171.465 35.716C171.399 35.87 171.355 36.046 171.355 36.222C171.355 36.332 171.377 36.42 171.421 36.508C171.509 36.662 171.685 36.75 171.861 36.772C171.927 36.794 171.971 36.816 172.037 36.838H172.147ZM193.081 35.166C193.257 35.166 193.499 35.122 193.653 35.056C193.675 35.056 193.675 35.056 193.697 35.056C194.159 34.99 194.599 34.902 195.017 34.748C195.127 34.704 195.237 34.66 195.347 34.638C195.435 34.616 195.545 34.594 195.655 34.594C195.897 34.572 196.007 34.506 196.161 34.396C196.227 34.33 196.293 34.286 196.381 34.242C196.403 34.22 196.667 34.11 196.733 34.11L196.975 34.132C197.085 34.088 197.195 34.022 197.283 33.934C197.525 33.692 197.745 33.67 197.855 33.56C197.877 33.538 197.921 33.494 197.943 33.472C197.965 33.45 197.987 33.384 198.075 33.362C198.097 33.34 198.163 33.318 198.229 33.296C198.273 33.296 198.295 33.296 198.317 33.274C198.427 33.23 198.515 33.186 198.603 33.142C198.757 33.032 198.889 32.966 199.043 32.966C199.109 32.966 199.197 32.944 199.263 32.922C199.329 32.878 199.373 32.812 199.395 32.724C199.439 32.636 199.505 32.57 199.571 32.504C199.681 32.438 199.813 32.372 199.967 32.35C200.077 32.328 200.187 32.284 200.297 32.218C200.363 32.174 200.429 32.108 200.473 32.02C200.517 31.954 200.561 31.91 200.627 31.844C200.957 31.558 201.287 31.316 201.639 31.118C201.727 31.074 201.815 31.052 201.925 31.052C202.013 31.052 202.079 31.03 202.145 31.008C202.255 30.92 202.343 30.744 202.431 30.656C202.783 30.392 203.157 30.128 203.531 29.886C203.619 29.82 203.707 29.776 203.817 29.71C204.147 29.534 204.389 29.314 204.587 29.072C204.609 29.05 204.653 28.984 204.697 28.918C204.873 28.742 205.049 28.5 205.049 28.39C205.049 28.324 205.027 28.324 205.005 28.302C204.983 28.302 204.983 28.302 204.961 28.302C204.763 28.302 204.323 28.588 204.213 28.654C204.103 28.764 203.993 28.852 203.927 28.94C203.861 29.072 203.729 29.182 203.553 29.292C203.443 29.358 203.355 29.402 203.245 29.468C203.135 29.534 203.025 29.6 202.915 29.666C202.849 29.688 202.761 29.732 202.695 29.754C202.497 29.82 202.321 29.952 202.145 30.062C202.057 30.128 201.969 30.194 201.881 30.26C201.683 30.414 201.551 30.612 201.397 30.722C201.111 30.898 200.781 30.942 200.407 31.14C200.253 31.25 200.077 31.36 199.923 31.448C199.901 31.47 199.857 31.47 199.835 31.492C199.725 31.558 199.637 31.602 199.549 31.668C199.483 31.734 199.417 31.778 199.351 31.822C199.219 31.888 199.087 31.954 198.955 32.02C198.845 32.064 198.757 32.108 198.691 32.13C198.669 32.13 198.647 32.152 198.647 32.174C198.647 32.174 198.625 32.218 198.603 32.218L198.427 32.196C198.361 32.218 198.273 32.284 198.207 32.35C198.141 32.438 198.053 32.504 197.943 32.526C197.877 32.526 197.701 32.46 197.701 32.416C197.635 32.438 197.613 32.504 197.591 32.57C197.569 32.614 197.547 32.658 197.525 32.702C197.393 32.834 197.239 32.922 197.041 32.988C196.755 33.12 196.469 33.208 196.183 33.274C195.897 33.318 195.897 33.384 195.633 33.516C195.479 33.582 195.347 33.626 195.193 33.648C195.105 33.67 195.017 33.67 194.929 33.692C194.643 33.78 194.357 33.846 194.093 33.868C194.005 33.89 193.895 33.89 193.785 33.912L193.433 33.89C193.345 33.89 193.279 33.912 193.213 33.956C193.169 33.978 193.125 33.978 193.059 34C192.993 34 192.949 33.912 192.883 33.912C192.817 33.912 192.685 33.956 192.597 33.956C192.399 33.934 192.311 33.846 192.157 33.736C192.135 33.714 192.113 33.692 192.091 33.67C191.497 33.318 191.079 32.9 191.079 31.866C191.079 31.602 191.145 31.382 191.255 31.184C191.321 31.118 191.387 31.052 191.453 31.03C191.519 31.008 191.607 30.942 191.607 30.854C191.607 30.766 191.563 30.678 191.563 30.59C191.563 30.524 191.563 30.524 191.629 30.502C191.651 30.502 191.651 30.502 191.673 30.48C191.695 30.48 191.739 30.524 191.761 30.546C191.783 30.59 191.805 30.612 191.827 30.634C191.893 30.656 191.937 30.7 192.003 30.722C192.047 30.744 192.091 30.766 192.157 30.788C192.201 30.81 192.245 30.832 192.267 30.854C192.421 30.964 192.597 31.008 192.773 31.008C193.059 31.008 193.477 30.854 193.807 30.7C193.829 30.678 193.873 30.678 193.917 30.656C194.159 30.568 194.401 30.458 194.555 30.348C194.577 30.326 194.621 30.282 194.643 30.194C194.665 30.128 194.709 30.084 194.731 30.062C194.841 29.952 194.973 29.864 195.127 29.798C195.303 29.688 195.435 29.578 195.523 29.424C195.589 29.336 195.655 29.248 195.765 29.138C196.073 28.852 196.359 28.522 196.623 28.17C196.821 27.928 197.019 27.686 197.217 27.444C197.371 27.29 197.481 27.114 197.547 26.938C197.591 26.85 197.635 26.762 197.701 26.674C197.745 26.608 197.789 26.564 197.833 26.498C198.031 26.168 198.273 25.86 198.273 25.266C198.273 25.112 198.251 24.98 198.207 24.87C198.185 24.804 198.119 24.738 198.053 24.672C198.009 24.65 197.965 24.606 197.943 24.562C197.921 24.518 197.921 24.474 197.921 24.452C197.899 24.364 197.899 24.32 197.833 24.254C197.723 24.144 197.481 24.122 197.239 24.122C197.085 24.122 196.975 24.122 196.865 24.144C196.139 24.342 195.479 24.672 194.929 25.134C194.863 25.178 194.819 25.222 194.753 25.244C194.247 25.574 193.785 25.97 193.367 26.41C193.257 26.52 193.147 26.652 193.015 26.762C192.839 26.916 192.685 27.07 192.553 27.246C192.355 27.532 192.157 27.818 191.959 28.104C191.629 28.566 191.343 29.028 191.057 29.468C190.947 29.644 190.837 29.842 190.771 30.062C190.727 30.172 190.683 30.282 190.639 30.37C190.353 30.964 190.089 31.602 190.089 32.57C190.089 32.79 190.133 32.988 190.199 33.142C190.221 33.186 190.265 33.23 190.331 33.252C190.375 33.274 190.419 33.318 190.441 33.362C190.507 33.472 190.573 33.582 190.639 33.692C190.661 33.736 190.661 33.78 190.683 33.802C190.837 34.088 190.991 34.242 191.189 34.418C191.211 34.44 191.233 34.44 191.255 34.462C191.585 34.726 191.871 34.814 192.245 34.902C192.487 34.968 192.751 35.1 193.015 35.166H193.081ZM192.905 29.908C192.751 29.908 192.377 29.534 192.333 29.468C192.311 29.424 192.311 29.38 192.311 29.314C192.311 28.896 192.619 28.544 192.949 28.258C193.059 28.126 193.169 27.994 193.279 27.884C193.345 27.796 193.411 27.708 193.477 27.62C193.587 27.422 193.719 27.246 193.873 27.092C193.983 26.982 194.225 26.762 194.599 26.454C194.973 26.146 195.369 25.838 195.809 25.552C196.227 25.266 196.579 25.134 196.865 25.134C197.107 25.134 197.239 25.31 197.239 25.486C197.239 25.64 197.151 25.75 197.063 25.838C196.997 25.904 196.953 25.97 196.909 26.036C196.887 26.102 196.887 26.146 196.887 26.19C196.865 26.256 196.865 26.3 196.843 26.366C196.799 26.454 196.755 26.542 196.689 26.608C196.645 26.652 196.601 26.696 196.579 26.74C196.535 26.806 196.491 26.894 196.469 26.96C196.403 27.136 196.337 27.268 196.073 27.378C196.073 27.378 195.721 27.51 195.721 27.554C195.699 27.62 195.677 27.664 195.677 27.73C195.655 27.796 195.633 27.84 195.611 27.906C195.457 28.06 195.281 28.104 195.105 28.28C194.929 28.61 194.753 28.808 194.401 29.05C194.335 29.116 194.247 29.16 194.181 29.204C194.049 29.314 193.895 29.424 193.741 29.512C193.653 29.556 193.543 29.6 193.433 29.644C193.235 29.732 193.037 29.798 192.949 29.886L192.905 29.908ZM200.388 35.826C200.652 35.826 200.982 35.496 201.092 35.386C201.202 35.298 201.29 35.21 201.356 35.1C201.422 35.034 201.466 34.946 201.532 34.88C201.554 34.858 201.598 34.836 201.642 34.814C201.73 34.792 201.818 34.726 201.84 34.704C201.884 34.638 201.928 34.572 201.95 34.506C201.972 34.44 201.994 34.374 202.038 34.308C202.104 34.22 202.258 34.088 202.346 34.022C202.632 33.78 202.83 33.604 203.028 33.318C203.182 33.12 203.336 32.966 203.512 32.834C203.6 32.746 203.688 32.658 203.798 32.57C203.93 32.438 204.062 32.306 204.172 32.152C204.304 31.976 204.436 31.822 204.59 31.668C204.7 31.558 204.832 31.448 204.986 31.338C205.162 31.228 205.316 31.074 205.47 30.92C205.668 30.678 205.888 30.414 206.152 30.172C206.196 30.128 206.24 30.084 206.262 30.04C206.35 29.93 206.416 29.798 206.57 29.776L206.724 29.798C206.834 29.798 206.878 29.71 206.878 29.622V29.512C206.9 29.336 207.01 29.27 207.164 29.204C207.208 29.182 207.252 29.138 207.296 29.116C207.362 29.094 207.428 29.028 207.516 28.94C207.538 28.918 207.56 28.874 207.582 28.852C207.648 28.764 207.714 28.676 207.802 28.61C208.308 28.236 208.484 28.082 208.726 27.84C208.858 27.708 209.056 27.51 209.342 27.268C209.386 27.224 209.43 27.18 209.496 27.114C209.584 27.004 209.672 26.938 209.782 26.872C209.826 26.872 210.002 26.828 210.046 26.828H210.068C210.222 26.74 210.354 26.63 210.464 26.476C210.552 26.366 210.64 26.278 210.728 26.212C211.146 25.926 211.762 25.684 212.048 25.684C212.378 25.684 212.444 25.948 212.444 26.278C212.444 26.454 212.422 26.63 212.4 26.806C212.378 26.872 212.378 26.938 212.378 27.004L212.4 27.532C212.4 27.598 212.378 27.664 212.378 27.752C212.356 27.818 212.356 27.84 212.356 27.862C212.356 27.928 212.356 27.972 212.378 28.038C212.4 28.104 212.422 28.17 212.422 28.236C212.422 28.28 212.422 28.324 212.4 28.368C212.378 28.434 212.378 28.478 212.378 28.522C212.444 29.204 212.95 29.6 213.566 29.776C213.588 29.776 213.61 29.776 213.632 29.798C213.918 29.908 214.204 29.974 214.468 29.974C214.732 29.974 214.908 29.842 215.172 29.842H215.414C216.052 29.732 216.646 29.512 217.196 29.182C217.24 29.16 217.284 29.116 217.35 29.094C217.636 28.94 217.988 28.742 217.988 28.588C217.988 28.5 217.834 28.456 217.526 28.434C217.152 28.434 216.778 28.5 216.448 28.654C216.25 28.72 216.052 28.786 215.832 28.83C215.766 28.852 215.678 28.874 215.612 28.896C215.348 29.006 215.062 29.05 214.732 29.05C213.654 29.028 213.302 28.852 213.302 27.884C213.324 27.62 213.346 27.378 213.368 27.158C213.412 26.938 213.434 26.696 213.434 26.432C213.434 26.278 213.412 26.102 213.368 25.926C213.346 25.86 213.346 25.794 213.324 25.728C213.258 25.464 213.17 25.2 213.06 25.046C212.906 24.936 212.708 24.87 212.51 24.87L212.136 24.892L211.63 24.87C211.498 24.87 211.498 24.914 211.454 24.914C211.432 24.936 211.41 24.98 211.322 25.002C211.278 25.024 211.234 25.046 211.168 25.068C210.97 25.178 210.728 25.288 210.574 25.442C210.53 25.508 210.486 25.552 210.464 25.596C210.398 25.706 210.332 25.816 210.156 25.816C209.87 25.816 209.848 25.992 209.716 26.124C209.606 26.234 209.496 26.278 209.342 26.344C208.924 26.586 208.55 26.894 208.198 27.268C208 27.466 207.802 27.642 207.604 27.796C207.01 28.28 206.416 28.786 205.866 29.336C205.69 29.49 205.558 29.71 205.382 29.864C205.316 29.886 205.272 29.93 205.228 29.974C205.118 30.04 205.008 30.106 204.92 30.194C204.81 30.304 204.7 30.414 204.612 30.546C204.502 30.722 204.348 30.876 204.194 31.008C204.04 31.118 203.908 31.25 203.82 31.36C203.754 31.448 203.666 31.536 203.578 31.624C203.556 31.646 203.534 31.668 203.49 31.69C203.38 31.8 203.182 31.976 203.072 31.976C203.006 31.976 202.984 31.932 202.984 31.866C202.984 31.778 203.094 31.668 203.182 31.558C203.204 31.536 203.226 31.514 203.248 31.492C203.314 31.382 203.402 31.294 203.49 31.184C203.644 30.964 203.798 30.766 203.974 30.568C204.106 30.436 204.194 30.458 204.304 30.304C204.37 30.216 204.414 30.128 204.436 30.04C204.458 29.974 204.48 29.908 204.524 29.842C204.59 29.754 204.678 29.666 204.744 29.6C204.788 29.556 204.832 29.512 204.876 29.468C204.942 29.402 204.942 29.336 204.964 29.314C204.964 29.27 204.986 29.226 205.008 29.182C205.14 28.94 205.294 28.72 205.492 28.5C205.558 28.434 205.602 28.346 205.668 28.28C205.998 27.796 206.35 27.334 206.702 26.894C207.142 26.322 207.56 25.728 207.978 25.134C208.044 25.024 208.132 24.914 208.242 24.782C208.528 24.43 208.88 23.99 208.88 23.616C208.88 23.352 208.66 23.132 208.418 23.132C208.308 23.132 208.22 23.154 208.11 23.22C207.934 23.286 207.912 23.352 207.89 23.462C207.868 23.506 207.846 23.572 207.802 23.638C207.692 23.792 207.538 23.946 207.318 24.1C207.164 24.21 207.054 24.298 206.944 24.408C206.79 24.562 206.614 24.738 206.438 24.892C206.13 25.156 205.822 25.442 205.536 25.772C205.514 25.794 205.492 25.838 205.47 25.86C205.448 25.86 205.404 25.882 205.382 25.948C205.316 26.036 205.272 26.124 205.206 26.212C205.184 26.278 205.14 26.322 205.118 26.366C204.832 26.696 204.656 26.96 204.634 27.378C204.634 27.488 204.656 27.598 204.678 27.686C204.7 27.752 204.722 27.84 204.722 27.928C204.722 28.214 204.414 28.654 204.084 29.028C204.062 29.05 204.018 29.094 203.952 29.116C203.886 29.182 203.82 29.226 203.798 29.248C203.776 29.314 203.754 29.358 203.732 29.402C203.732 29.446 203.732 29.49 203.71 29.534C203.468 29.952 203.182 30.348 202.83 30.744C202.676 30.92 202.544 31.096 202.412 31.272C202.258 31.47 202.126 31.646 201.994 31.844C201.818 32.13 201.62 32.394 201.4 32.658C201.268 32.812 201.158 32.988 201.048 33.186C200.982 33.296 200.894 33.406 200.828 33.516C200.806 33.538 200.784 33.56 200.762 33.582C200.234 34.11 199.926 34.704 199.838 35.342C199.838 35.54 199.926 35.606 200.036 35.628C200.102 35.65 200.19 35.716 200.256 35.782C200.3 35.804 200.344 35.826 200.388 35.826ZM214.182 30.018H214.138L214.16 30.062L214.182 30.018Z" fill="#92331E"/>
</svg>
