<svg width="99" height="49" viewBox="0 0 99 49" fill="none" xmlns="http://www.w3.org/2000/svg">
<path d="M11.206 47.068C11.36 47.068 11.646 46.98 11.756 46.98C11.91 46.98 12.064 46.958 12.196 46.914C12.262 46.892 12.35 46.87 12.438 46.848C12.944 46.782 13.45 46.694 13.934 46.562C14.088 46.518 14.264 46.496 14.418 46.496C14.572 46.474 14.748 46.452 14.902 46.408C15.012 46.364 15.144 46.32 15.276 46.254C15.452 46.188 15.628 46.122 15.826 46.056C15.98 46.012 16.156 45.968 16.332 45.946C16.442 45.924 16.574 45.902 16.684 45.88C16.926 45.792 17.102 45.616 17.344 45.528C17.498 45.462 17.674 45.418 17.872 45.374C18.356 45.264 18.818 45.088 19.236 44.846C19.5 44.692 19.764 44.582 20.05 44.472C20.292 44.406 20.512 44.296 20.754 44.186C21.15 43.988 21.546 43.812 21.964 43.658C22.448 43.46 22.888 43.262 23.306 43.02C23.438 42.954 23.57 42.866 23.68 42.778C23.79 42.712 23.922 42.624 24.054 42.558C25.308 41.964 26.54 41.304 27.706 40.556C28.498 40.072 29.29 39.61 30.104 39.17C30.39 39.016 30.676 38.818 30.962 38.598C31.182 38.444 31.402 38.29 31.644 38.136C31.93 37.96 32.216 37.762 32.48 37.542C32.722 37.344 32.986 37.168 33.228 36.992C34.218 36.398 35.12 35.716 35.956 34.968C36.264 34.704 36.594 34.462 36.946 34.22C37.1 34.11 37.232 34.022 37.386 33.912C37.452 33.846 37.518 33.758 37.584 33.67C37.65 33.604 37.716 33.516 37.782 33.45C37.848 33.384 37.936 33.34 38.002 33.296C38.134 33.23 38.244 33.142 38.354 32.988C38.684 32.526 39.08 32.13 39.564 31.8C39.85 31.58 40.114 31.338 40.312 31.074C40.4 30.964 40.51 30.832 40.62 30.722C40.73 30.612 40.862 30.524 40.972 30.436C41.126 30.326 41.258 30.216 41.39 30.084C41.478 29.974 41.566 29.864 41.632 29.754C41.83 29.468 42.028 29.226 42.38 28.984C42.468 28.874 42.556 28.764 42.644 28.654C42.71 28.544 42.798 28.434 42.864 28.346C43.37 27.708 43.898 27.048 44.404 26.366C44.668 26.036 44.932 25.706 45.174 25.376C45.284 25.222 45.372 25.068 45.438 24.892C45.504 24.76 45.57 24.628 45.636 24.518C46.406 23.352 47.066 22.164 47.572 20.932C47.594 20.844 47.638 20.756 47.66 20.646C47.682 20.492 47.748 20.338 47.814 20.184C47.858 20.096 47.924 20.03 47.99 19.986C48.056 19.942 48.1 19.876 48.144 19.81C48.144 19.37 48.144 19.282 48.232 18.974C48.254 18.93 48.254 18.864 48.276 18.798C48.65 17.632 48.826 16.466 48.826 15.278C48.826 13.892 48.628 12.22 48.034 11.054C47.924 10.856 47.814 10.636 47.704 10.416C47.55 10.108 47.374 9.8 47.176 9.514C46.208 7.952 44.69 6.61 43.26 5.62C42.754 5.246 42.204 4.96 41.61 4.762C41.412 4.696 41.236 4.608 41.06 4.52C40.73 4.366 40.4 4.234 40.026 4.124C39.938 4.102 39.85 4.08 39.74 4.058C39.674 4.036 39.586 4.036 39.498 4.014C39.366 3.926 39.256 3.816 39.102 3.816C39.036 3.816 38.992 3.926 38.926 3.926C38.816 3.926 38.75 3.926 38.684 3.86C38.662 3.838 38.618 3.838 38.574 3.816C38.178 3.662 37.738 3.596 37.276 3.574C37.122 3.552 36.99 3.552 36.858 3.53C36.484 3.486 36.132 3.464 35.78 3.464C35.362 3.464 34.944 3.486 34.526 3.53C34.328 3.552 34.108 3.552 33.888 3.552C33.492 3.53 33.096 3.574 32.722 3.64C32.128 3.75 31.512 3.86 30.918 3.948C30.236 4.014 29.576 4.124 28.894 4.278C28.652 4.344 28.432 4.41 28.19 4.476C27.816 4.586 27.464 4.674 27.09 4.74C26.54 4.828 25.99 5.004 25.462 5.268C25.44 5.29 25.396 5.29 25.374 5.312C25.088 5.4 24.824 5.4 24.56 5.488C24.34 5.598 24.098 5.686 23.856 5.752C22.998 6.038 22.316 6.28 21.854 6.456C21.37 6.654 20.842 6.852 20.27 7.094C19.94 7.248 19.566 7.402 19.126 7.578C18.95 7.644 18.774 7.71 18.576 7.776C18.422 7.82 18.29 7.864 18.18 7.908C18.026 7.974 17.872 8.062 17.718 8.172C17.674 8.194 17.63 8.238 17.586 8.26C17.344 8.37 17.08 8.48 16.838 8.59C16.596 8.678 16.354 8.788 16.112 8.898C15.914 9.008 15.738 9.096 15.54 9.206C14.902 9.536 14.242 9.866 13.56 10.174C12.922 10.46 12.284 10.812 11.668 11.208C11.184 11.494 10.7 11.78 10.194 12.044C9.798 12.242 9.402 12.484 8.984 12.748C8.61 12.99 8.214 13.21 7.84 13.43C7.642 13.584 7.488 13.804 7.246 13.958C7.18 14.002 7.092 14.024 7.004 14.046C6.938 14.068 6.85 14.09 6.784 14.134C6.718 14.178 6.674 14.222 6.63 14.288C6.608 14.332 6.564 14.376 6.542 14.398C6.256 14.64 5.948 14.904 5.64 15.168C4.738 15.872 3.924 16.664 3.198 17.522C3.154 17.588 3.11 17.632 3.066 17.698C2.956 17.896 2.802 18.072 2.626 18.226C2.56 18.27 2.516 18.314 2.45 18.336C2.362 18.402 2.274 18.424 2.186 18.6C2.054 18.886 1.9 19.194 1.702 19.48C1.57 19.7 1.438 19.92 1.328 20.14C1.042 20.778 0.888 21.394 0.888 22.032C0.91 23.088 1.46 24.056 2.45 24.056C2.868 24.056 3.462 23.814 3.462 23.462C3.462 23.286 3.242 23.066 3.132 23.066C3.066 23.066 3 23.088 2.934 23.11C2.868 23.132 2.758 23.154 2.648 23.154C1.944 23.154 1.812 22.45 1.812 21.746C1.812 21.46 1.834 21.174 1.878 20.888C1.944 20.734 2.01 20.58 2.12 20.448C2.186 20.338 2.252 20.25 2.318 20.14C2.384 20.03 2.45 19.898 2.516 19.766C2.67 19.348 2.89 19.018 3.176 18.732C3.374 18.556 3.462 18.424 3.638 18.16C3.638 18.138 3.638 18.138 3.638 18.138C5.046 16.268 7.07 14.816 8.918 13.65C9.05 13.562 9.182 13.474 9.292 13.364C9.468 13.21 9.666 13.078 9.864 12.968C10.326 12.726 10.788 12.462 11.228 12.176C11.558 11.956 11.932 11.736 12.328 11.516C12.548 11.384 12.768 11.274 12.988 11.186C13.12 11.12 13.252 11.076 13.384 11.01C13.494 10.944 13.626 10.878 13.736 10.79C13.868 10.68 14 10.592 14.154 10.526C14.55 10.328 14.946 10.152 15.342 9.998C15.452 9.932 15.584 9.888 15.694 9.844C16.156 9.624 16.618 9.404 17.058 9.162C17.74 8.832 18.422 8.502 19.104 8.194C20.204 7.71 21.348 7.27 22.514 6.852C22.712 6.786 22.91 6.698 23.108 6.632C23.482 6.456 23.878 6.302 24.296 6.192C24.406 6.17 24.516 6.126 24.626 6.082C26.452 5.532 28.058 5.092 29.4 4.784C30.742 4.498 32.458 4.256 34.548 4.102L34.922 4.08C35.802 4.08 36.726 4.19 37.672 4.388C37.782 4.41 37.914 4.41 38.024 4.41C38.222 4.41 38.398 4.432 38.552 4.476C38.706 4.542 38.816 4.63 38.926 4.696C40.004 4.806 40.994 5.158 41.896 5.752C42.116 5.906 42.336 6.038 42.578 6.17C42.864 6.324 43.128 6.478 43.392 6.654C43.898 6.984 44.338 7.38 44.734 7.842C45.636 8.7 46.384 9.69 46.934 10.812C47.022 11.01 47.11 11.186 47.22 11.362C47.286 11.494 47.352 11.626 47.418 11.736C47.572 12.198 47.682 12.66 47.726 13.078C47.77 13.408 47.836 13.738 47.924 14.024C47.99 14.31 48.034 14.618 48.034 14.926C48.034 15.212 48.012 15.476 47.99 15.718C47.946 15.96 47.924 16.224 47.924 16.51V16.884C47.924 17.654 47.704 18.38 47.44 19.106C47.33 19.392 47.242 19.678 47.154 19.964C47.132 20.074 47.088 20.162 47.044 20.272C46.978 20.47 46.912 20.69 46.824 20.888C46.802 20.954 46.758 21.042 46.736 21.13C46.648 21.394 46.538 21.68 46.384 21.834C46.318 21.878 46.252 21.9 46.186 21.922C46.076 21.988 45.966 22.032 45.966 22.142L45.988 22.428C45.966 22.604 45.878 22.714 45.79 22.802C45.724 22.868 45.658 22.956 45.614 23.044C45.592 23.11 45.57 23.176 45.57 23.242C45.57 23.396 45.548 23.506 45.372 23.528C45.306 23.528 45.152 23.418 44.976 23.264C44.866 23.176 44.8 23.11 44.734 23.088C43.832 22.626 42.908 22.252 41.962 21.966C41.874 21.944 41.764 21.922 41.654 21.9C41.478 21.878 41.324 21.834 41.214 21.79C41.17 21.768 41.126 21.724 41.104 21.702C41.082 21.68 41.038 21.614 40.95 21.614C40.906 21.614 40.84 21.724 40.752 21.724C40.664 21.724 40.554 21.702 40.444 21.636C40.334 21.592 40.246 21.57 40.158 21.548C39.96 21.526 39.74 21.504 39.542 21.482C38.838 21.372 38.068 21.328 37.232 21.328L35.076 21.35C34.922 21.35 34.746 21.35 34.592 21.372C34.086 21.35 33.602 21.394 33.118 21.46C33.03 21.482 32.942 21.482 32.876 21.504C32.678 21.548 32.48 21.57 32.238 21.592L31.666 21.57C31.622 21.57 31.468 21.724 31.358 21.724C31.292 21.746 31.204 21.768 31.094 21.768C31.05 21.79 31.006 21.79 30.962 21.79C30.676 21.834 30.412 21.856 30.126 21.878C29.334 21.988 28.564 22.164 27.816 22.406C27.662 22.428 27.508 22.472 27.354 22.494C27.134 22.516 26.914 22.56 26.716 22.626C26.254 22.758 25.77 22.89 25.308 23.044C25.132 23.088 24.956 23.132 24.78 23.198C24.494 23.286 24.186 23.374 23.9 23.462C21.898 23.99 19.94 24.716 18.026 25.64C17.872 25.706 17.718 25.772 17.564 25.794C17.366 25.838 17.19 25.904 17.014 26.014C16.992 26.036 16.948 26.058 16.926 26.102C16.838 26.19 16.772 26.278 16.684 26.278C16.64 26.278 16.618 26.234 16.618 26.146C16.618 25.992 16.816 25.772 16.97 25.596C17.036 25.53 17.08 25.486 17.102 25.442C17.212 25.332 17.3 25.2 17.366 25.09C17.476 24.936 17.608 24.782 17.718 24.65C18.048 24.254 18.378 23.836 18.708 23.418C19.192 22.824 19.676 22.23 20.16 21.68C20.226 21.614 20.27 21.526 20.336 21.46C20.402 21.328 20.49 21.218 20.6 21.108C20.776 20.91 20.864 20.778 21.018 20.514C21.106 20.36 21.216 20.206 21.37 20.074C21.546 19.92 21.678 19.744 21.832 19.568C21.92 19.436 22.008 19.326 22.118 19.216C22.382 18.93 22.602 18.688 22.756 18.468C22.822 18.402 22.866 18.336 22.91 18.27C23.064 18.094 23.196 17.918 23.328 17.742C23.636 17.346 23.944 16.972 24.252 16.598C24.34 16.51 24.428 16.422 24.494 16.356C24.648 16.224 24.78 16.07 24.89 15.916C25.264 15.432 25.572 15.058 25.77 14.794C25.968 14.552 26.232 14.222 26.562 13.804C26.804 13.518 27.112 13.298 27.354 13.012C27.376 12.99 27.376 12.968 27.398 12.946C27.574 12.748 27.75 12.528 27.948 12.33C28.212 12.044 28.454 11.758 28.652 11.472C28.762 11.318 28.85 11.186 28.96 11.054C29.026 10.944 29.114 10.856 29.202 10.768C29.488 10.438 29.73 10.086 29.972 9.712C29.994 9.69 30.016 9.646 30.038 9.602C30.17 9.448 30.236 9.272 30.236 9.118C30.236 8.964 30.126 8.81 29.972 8.7C29.95 8.678 29.95 8.678 29.928 8.656C29.906 8.634 29.862 8.612 29.84 8.59C29.774 8.524 29.752 8.502 29.73 8.502C29.686 8.502 29.62 8.524 29.554 8.59C29.4 8.678 29.334 8.898 29.246 9.074C29.202 9.206 29.158 9.316 29.092 9.404L28.608 10.108C28.52 10.218 28.432 10.328 28.344 10.438C28.234 10.57 28.124 10.702 28.058 10.834C27.992 10.944 27.992 11.076 27.926 11.164C27.86 11.252 27.816 11.274 27.794 11.296C27.772 11.318 27.728 11.362 27.684 11.384C27.442 11.604 27.244 11.846 27.068 12.11C26.914 12.352 26.738 12.55 26.54 12.748C26.254 13.034 25.99 13.342 25.748 13.672C25.616 13.826 25.484 13.98 25.352 14.134C25.33 14.178 25.286 14.222 25.242 14.266C24.89 14.662 24.56 15.08 24.274 15.498C24.076 15.806 23.834 16.092 23.592 16.334C23.46 16.488 23.328 16.62 23.218 16.752C22.822 17.258 22.404 17.764 21.986 18.27C21.634 18.688 21.282 19.106 20.952 19.524C20.468 20.118 20.006 20.734 19.544 21.35C19.302 21.68 19.038 22.01 18.796 22.34C17.982 23.396 17.146 24.43 16.288 25.464C16.156 25.618 16.024 25.816 15.892 26.014C15.628 26.432 15.342 26.762 15.012 27.048C14.77 27.202 14.528 27.334 14.264 27.444C14.11 27.51 13.956 27.576 13.802 27.664C13.296 27.95 12.812 28.28 12.35 28.61C11.844 28.984 11.316 29.292 10.81 29.556C10.436 29.776 10.062 30.04 9.732 30.348C9.622 30.458 9.49 30.546 9.38 30.634C8.918 31.008 8.456 31.382 7.972 31.734C7.598 32.02 7.268 32.35 6.938 32.68C6.784 32.856 6.608 33.032 6.454 33.186C5.574 34.11 4.804 35.1 4.166 36.178C4.1 36.288 4.056 36.42 4.012 36.53C3.946 36.64 3.902 36.772 3.836 36.882C3.77 36.992 3.726 37.08 3.66 37.19C3.572 37.322 3.484 37.476 3.418 37.63C3.396 37.74 3.352 37.828 3.308 37.938C3.154 38.378 3.022 38.862 2.912 39.39C2.89 39.456 2.89 39.5 2.868 39.566C2.758 39.896 2.714 40.204 2.714 40.49L2.736 40.974V41.326C2.736 42.558 3.374 43.702 4.144 44.604C4.87 45.55 5.992 46.1 7.114 46.518C7.796 46.76 8.478 46.892 9.16 46.936H10.326C10.59 46.936 11.008 46.958 11.096 47.046C11.118 47.068 11.162 47.068 11.206 47.068ZM9.622 46.166C9.358 46.166 8.808 46.1 8.698 46.056C7.576 45.858 6.564 45.462 5.618 44.846C4.672 44.23 4.034 43.35 3.748 42.228C3.638 41.744 3.572 41.26 3.572 40.776C3.572 39.104 4.254 37.52 5.156 36.046C5.662 35.144 6.278 34.352 7.004 33.67C7.29 33.428 7.554 33.164 7.796 32.878C8.038 32.57 8.324 32.306 8.632 32.064C8.654 32.042 8.698 32.042 8.72 32.02C8.786 31.998 8.852 31.976 8.896 31.932C8.918 31.91 8.962 31.866 8.984 31.822C9.006 31.778 9.028 31.734 9.05 31.712C9.16 31.624 9.292 31.536 9.446 31.47C9.644 31.36 9.842 31.25 9.996 31.096C10.018 31.052 10.062 31.008 10.084 30.964C10.106 30.898 10.128 30.854 10.194 30.788C10.656 30.48 11.074 30.216 11.404 29.996C11.822 29.71 12.35 29.358 12.966 28.984C13.142 28.874 13.384 28.72 13.494 28.72C13.56 28.72 13.56 28.742 13.56 28.764C13.56 28.83 13.516 28.918 13.428 29.072C13.318 29.27 13.23 29.336 13.142 29.358C13.054 29.424 12.988 29.468 12.9 29.71C12.812 29.996 12.548 30.326 12.284 30.59C12.196 30.7 12.108 30.788 12.042 30.876C11.756 31.25 11.47 31.624 11.162 31.998C10.942 32.262 10.744 32.548 10.59 32.834C10.48 32.988 10.37 33.164 10.26 33.318C10.128 33.494 9.974 33.67 9.798 33.846C9.666 34 9.534 34.132 9.424 34.286C9.27 34.44 9.138 34.616 9.028 34.792C8.918 34.99 8.786 35.166 8.632 35.32C8.346 35.694 8.06 36.046 7.818 36.398C7.532 36.816 7.202 37.234 6.872 37.63C6.608 37.872 6.278 38.224 6.124 38.576C5.97 38.994 5.794 39.28 5.53 39.632C5.42 39.786 5.354 39.984 5.354 40.182C5.354 40.556 5.794 40.842 6.08 40.842C6.344 40.842 6.542 40.688 6.696 40.358C6.828 40.028 6.894 39.698 6.916 39.412C6.916 38.862 7.224 38.422 7.576 38.004C7.95 37.542 8.302 37.036 8.676 36.53C8.918 36.156 9.182 35.804 9.446 35.452C9.556 35.298 9.666 35.144 9.754 34.968C9.864 34.77 9.996 34.572 10.15 34.396C11.03 33.406 11.888 32.35 12.702 31.206C13.032 30.744 13.384 30.282 13.714 29.842C13.846 29.666 13.978 29.49 14.11 29.314C14.286 29.072 14.484 28.808 14.682 28.566C14.77 28.456 14.858 28.324 14.946 28.214C15.144 27.884 15.408 27.598 15.694 27.4C16.156 27.136 16.618 26.916 17.124 26.74C17.586 26.564 18.026 26.366 18.4 26.146C18.686 25.992 18.994 25.86 19.28 25.75C19.434 25.684 19.566 25.64 19.72 25.574C20.27 25.376 20.754 25.068 21.304 24.87C23.306 24.188 25.33 23.616 27.376 23.154C27.442 23.132 27.53 23.132 27.596 23.11C28.036 23.022 28.476 22.912 28.894 22.758C29.026 22.714 29.158 22.692 29.268 22.692C29.334 22.692 29.422 22.692 29.51 22.67C29.62 22.648 29.708 22.626 29.818 22.582C29.928 22.516 30.038 22.494 30.148 22.472C30.632 22.45 31.116 22.384 31.622 22.318C32.128 22.23 32.634 22.164 33.14 22.142C33.404 22.12 33.668 22.098 33.932 22.054C34.218 22.01 34.504 21.988 34.812 21.966C35.01 21.966 35.23 22.01 35.428 22.01C35.846 21.988 36.044 21.966 36.286 21.966H36.88C37.716 21.966 38.354 21.988 38.816 22.032C39.278 22.098 39.806 22.164 40.444 22.274C40.664 22.318 40.906 22.362 41.17 22.406C41.61 22.472 42.05 22.604 42.468 22.758C42.49 22.758 42.534 22.758 42.556 22.78C42.666 22.824 42.798 22.868 42.908 22.89C43.106 22.956 43.282 23.022 43.458 23.088C43.568 23.154 43.656 23.198 43.744 23.264C43.854 23.33 43.964 23.396 44.096 23.462C44.14 23.484 44.206 23.484 44.272 23.506C44.646 23.594 45.13 23.726 45.13 24.056C45.13 24.298 44.91 24.54 44.712 24.782C44.624 24.87 44.558 24.958 44.514 25.024C43.964 25.926 43.348 26.74 42.71 27.51C42.578 27.664 42.446 27.796 42.292 27.95C42.116 28.126 41.94 28.324 41.786 28.522C41.72 28.632 41.632 28.742 41.566 28.852C41.5 29.006 41.412 29.116 41.324 29.226C41.214 29.336 41.126 29.402 41.016 29.446C40.95 29.49 40.884 29.534 40.818 29.578C40.73 29.644 40.664 29.732 40.62 29.842C40.598 29.908 40.554 29.974 40.488 30.04C40.4 30.172 40.29 30.282 40.158 30.37C40.136 30.392 40.092 30.436 40.048 30.458C39.542 30.898 39.058 31.36 38.552 31.866C37.65 32.812 36.66 33.67 35.582 34.462C35.494 34.528 35.428 34.594 35.362 34.704C35.274 34.814 35.186 34.88 35.098 34.946C35.032 34.968 34.988 34.99 34.944 35.012C34.856 35.012 34.812 35.034 34.746 35.1C34.57 35.254 34.526 35.43 34.35 35.584C34.196 35.672 33.976 35.804 33.822 35.87C33.492 35.98 33.36 36.134 33.184 36.244C33.118 36.31 33.052 36.354 32.964 36.42C32.898 36.464 32.854 36.508 32.788 36.552C32.502 36.772 32.216 36.97 31.908 37.168C31.226 37.586 30.588 38.004 29.994 38.422C29.268 38.928 28.542 39.39 27.816 39.808C27.574 39.918 27.354 40.072 27.156 40.226C26.914 40.38 26.672 40.534 26.408 40.666C25.99 40.886 25.572 41.106 25.176 41.348C25.132 41.37 25.088 41.392 25.022 41.436C24.868 41.546 24.692 41.678 24.538 41.678C24.516 41.678 24.45 41.634 24.384 41.612C24.296 41.854 24.076 41.964 23.834 42.03C23.768 42.052 23.724 42.074 23.68 42.096C23.526 42.162 23.394 42.228 23.24 42.294C23.086 42.382 22.954 42.448 22.8 42.514C22.536 42.624 22.294 42.756 22.052 42.888C21.766 43.042 21.458 43.196 21.15 43.306C20.424 43.57 19.698 43.856 18.972 44.164C18.378 44.406 17.762 44.648 17.168 44.89C16.024 45.308 14.858 45.616 13.648 45.836C13.318 45.902 12.966 45.968 12.636 45.99C12.35 46.012 12.064 46.056 11.8 46.1L11.316 46.144L10.678 46.122C10.656 46.122 10.59 46.122 10.502 46.1C10.348 46.078 10.216 46.078 10.062 46.078C9.886 46.078 9.864 46.166 9.622 46.166ZM77.3316 48.806C77.5296 48.806 77.8816 48.674 77.9036 48.432C77.9036 48.256 77.7716 48.168 77.5956 48.08C77.4856 48.036 77.4196 47.97 77.3536 47.904C77.1776 47.662 77.0456 47.244 77.0236 46.958C77.0236 46.87 77.0456 46.848 77.0676 46.782C77.0896 46.76 77.1116 46.716 77.1336 46.672C77.1336 46.606 77.0676 46.562 77.0456 46.496C77.0016 46.452 76.9796 46.408 76.9576 46.364C76.9136 46.188 76.8916 46.012 76.8916 45.814V45.264C76.8916 44.802 76.9136 44.34 76.9796 43.922C77.0016 43.768 77.0016 43.636 77.0236 43.504C77.0896 42.756 77.2216 42.03 77.3976 41.326C77.5076 40.908 77.6616 40.468 77.8156 40.006C77.9036 39.72 77.9916 39.456 78.0796 39.192C78.3216 38.466 78.5856 37.74 78.8716 37.036C79.4876 35.474 80.1476 33.956 80.8736 32.46C81.0496 32.108 81.2256 31.756 81.4016 31.404C81.9076 30.326 82.4576 29.248 83.0516 28.214C83.2056 27.928 83.3816 27.62 83.5356 27.312C83.7336 26.916 83.9316 26.52 84.1736 26.146C84.2176 26.058 84.2616 25.992 84.3276 25.926C84.3716 25.838 84.4156 25.75 84.4596 25.684C84.4816 25.618 84.5256 25.53 84.5476 25.464C84.5696 25.376 84.5916 25.288 84.6576 25.222C84.7676 25.112 84.9436 25.09 85.1196 25.068C85.1856 25.068 85.2516 25.068 85.3176 25.046C85.4496 25.024 85.5816 25.024 85.6916 25.002C86.0436 24.958 86.3956 24.936 86.7476 24.936C87.0116 24.914 87.2536 24.848 87.4956 24.782C87.5836 24.76 87.6716 24.738 87.7596 24.716C87.9576 24.694 88.1336 24.672 88.3316 24.672C88.6836 24.672 89.0356 24.65 89.3656 24.606C89.6076 24.584 89.8496 24.562 90.0916 24.54C90.5316 24.54 90.9716 24.54 91.3896 24.518C91.4556 24.496 91.4996 24.496 91.5656 24.474C91.6756 24.452 91.7856 24.43 91.8736 24.43C91.9616 24.43 92.0276 24.452 92.0936 24.474C92.1596 24.496 92.2036 24.496 92.2476 24.496C92.3796 24.496 92.5336 24.474 92.6876 24.43C92.8196 24.408 92.9296 24.386 93.0396 24.386L93.3696 24.408C93.4796 24.408 93.5676 24.386 93.5676 24.298C93.5236 24.078 92.8416 24.012 92.6436 24.012C92.5336 24.012 92.4236 24.034 92.3356 24.078C92.2696 24.1 92.1596 24.122 92.0496 24.122C91.9396 24.122 91.8516 24.122 91.7416 24.1C91.6976 24.078 91.6536 24.078 91.5876 24.078C91.0376 24.078 90.4656 24.1 89.9156 24.144C89.7396 24.166 89.5636 24.166 89.3876 24.188C89.2336 24.21 89.0796 24.232 88.9256 24.276C88.7276 24.342 88.5736 24.364 88.4196 24.364C88.1556 24.364 88.0676 24.232 87.8256 24.232C87.6716 24.232 87.5396 24.254 87.4076 24.32C87.3636 24.342 87.3196 24.342 87.2536 24.364C87.0116 24.386 86.7916 24.408 86.5496 24.43C86.3736 24.43 86.1976 24.43 86.0216 24.452C85.9556 24.452 85.8676 24.452 85.7796 24.474C85.5816 24.518 85.3836 24.54 85.2296 24.54L85.0536 24.518C85.2736 24.276 85.4496 23.968 85.6036 23.616C85.6916 23.418 85.7796 23.22 85.8896 23.066C86.1976 22.538 86.4836 22.01 86.7256 21.46C86.8136 21.262 86.9016 21.108 87.0116 20.954C87.1436 20.778 87.2536 20.58 87.3196 20.36C87.4296 20.074 87.5616 19.81 87.7596 19.524C87.8696 19.37 87.9796 19.194 88.0676 19.04C88.5076 18.27 88.9256 17.478 89.3216 16.708C89.5636 16.246 89.7836 15.806 90.0256 15.388C90.2016 15.102 90.3776 14.794 90.5316 14.486C90.5976 14.332 90.6856 14.2 90.7956 14.09C90.8616 14.002 90.9056 13.914 90.9716 13.826C91.0376 13.716 91.0816 13.606 91.1256 13.474C91.1696 13.364 91.2136 13.276 91.2576 13.188C91.4996 12.792 91.7416 12.396 91.9616 12C92.1596 11.648 92.3796 11.296 92.5776 10.944C93.0396 10.218 93.4796 9.492 93.9196 8.766C94.5356 7.776 95.1516 6.764 95.7896 5.774C95.9216 5.576 96.0756 5.356 96.2296 5.136C96.4276 4.872 96.6036 4.608 96.7576 4.344C96.9996 3.948 97.2636 3.596 97.5716 3.288C97.6596 3.178 97.7476 3.046 97.8136 2.892C97.8796 2.782 97.9236 2.694 97.9896 2.584C98.0556 2.496 98.1216 2.408 98.2096 2.298C98.5616 1.88 98.9576 1.374 98.9576 0.911999C98.9356 0.515998 98.7816 0.318 98.4956 0.318C97.9896 0.318 97.2856 0.801999 96.9996 1.066C96.5156 1.462 96.0316 1.836 95.5696 2.21C95.1956 2.496 94.8436 2.782 94.4916 3.068C93.6776 3.75 92.8856 4.454 92.1156 5.18C91.9396 5.334 91.7636 5.466 91.5876 5.598C91.3896 5.752 91.1916 5.928 90.9936 6.104C90.8396 6.258 90.6856 6.412 90.5316 6.61C90.3776 6.808 90.2236 7.006 90.0256 7.16C89.9376 7.226 89.8496 7.27 89.7616 7.336C89.6296 7.402 89.5196 7.468 89.4096 7.578C89.3436 7.644 89.2996 7.732 89.2556 7.82C89.1896 7.93 89.1236 8.018 89.0356 8.106C88.9696 8.172 88.8816 8.216 88.7936 8.282C88.6836 8.348 88.5956 8.436 88.4856 8.524C88.1336 8.854 87.8256 9.162 87.5616 9.448C87.0556 9.976 86.4616 10.526 85.8016 11.076C85.1196 11.67 84.5036 12.286 83.9096 12.924C83.7336 13.1 83.5576 13.276 83.3816 13.43C83.1396 13.628 82.9196 13.87 82.6996 14.112C82.3476 14.486 81.9736 14.86 81.5996 15.19C79.3556 17.258 77.2216 19.326 75.1976 21.394C75.0436 21.548 74.8896 21.702 74.7356 21.856C73.9216 22.67 73.1516 23.396 72.4696 24.056C71.8316 24.65 71.1936 25.288 70.5336 25.948C70.4236 26.036 70.3136 26.102 70.2036 26.168C70.1816 26.19 70.1376 26.19 70.1156 26.212C70.0276 26.278 69.9396 26.366 69.8736 26.454C69.7856 26.586 69.6756 26.696 69.5656 26.762C69.3676 26.85 69.0596 26.894 68.8176 26.916C68.7956 26.916 68.7736 26.916 68.7516 26.916C68.5536 26.938 68.3556 26.982 68.1576 27.048C67.8716 27.136 67.6076 27.18 67.3216 27.18H67.2336C66.8596 27.18 66.4636 27.246 66.0456 27.356C65.9576 27.378 65.8696 27.4 65.7816 27.422C65.0556 27.554 64.3956 27.664 63.8016 27.752C63.2076 27.862 62.5036 27.95 61.6896 28.016L61.2936 27.994C61.0956 27.994 60.9196 28.038 60.8096 28.126C60.6776 28.192 60.5456 28.236 60.3916 28.258C60.0616 28.28 59.7096 28.324 59.3796 28.346C58.9396 28.368 58.4996 28.39 58.0376 28.456C57.5316 28.522 57.0476 28.566 56.5636 28.632C56.1456 28.698 55.7056 28.742 55.2436 28.808C52.9336 29.028 50.6676 29.138 48.4016 29.138C48.1376 29.138 47.8956 29.116 47.6536 29.05C47.5436 29.028 47.4556 29.028 47.3456 29.006C47.1916 28.984 47.0596 28.984 46.9056 28.984C46.0696 29.006 45.2776 28.874 44.5516 28.61C44.4416 28.544 44.2876 28.522 44.1336 28.5C43.8696 28.5 43.6276 28.434 43.4736 28.236C43.4296 28.17 43.4076 28.126 43.4076 28.082C43.4076 27.972 43.5396 27.972 43.5396 27.862L43.5176 27.796C43.4736 27.752 43.1436 27.598 43.1216 27.598C42.9676 27.532 42.8356 27.51 42.7036 27.51C42.4616 27.51 42.2196 27.642 42.2196 27.972C42.2196 28.17 42.3516 28.412 42.4616 28.566C42.5496 28.654 42.5936 28.698 42.6596 28.698C42.7476 28.72 42.8796 28.83 42.9676 28.94C43.0336 29.028 43.1216 29.094 43.2316 29.16C44.1996 29.622 45.4316 29.732 46.4656 29.798C46.4876 29.798 46.5316 29.798 46.5536 29.798C46.7296 29.82 46.9056 29.82 47.1036 29.842C47.3456 29.864 47.6096 29.886 47.8736 29.886C48.1156 29.886 48.3136 29.886 48.5116 29.864C48.7536 29.842 49.0616 29.842 49.3916 29.842L50.2716 29.864C51.3056 29.864 52.3396 29.798 53.3736 29.666C53.5496 29.644 53.7256 29.622 53.9016 29.622C54.1876 29.6 54.4516 29.578 54.6936 29.512C55.0676 29.424 55.4636 29.38 55.8376 29.38H56.2556C56.5416 29.38 56.8276 29.336 57.1576 29.27C57.2896 29.248 57.4216 29.226 57.5316 29.204C57.9496 29.16 58.3896 29.094 58.8296 29.028C59.5556 28.918 60.3036 28.83 61.0736 28.764C61.6236 28.742 62.1516 28.654 62.6576 28.5C63.1636 28.368 63.6916 28.28 64.2196 28.258C64.2416 28.258 64.2416 28.258 64.2636 28.258C64.6376 28.214 65.0336 28.148 65.4076 28.038C65.6056 28.016 65.7816 27.972 65.9796 27.928C66.3976 27.862 66.7936 27.796 67.2116 27.752C67.7616 27.686 68.3116 27.598 68.8616 27.488C68.8616 27.642 68.6416 27.796 68.4656 27.95C68.3996 27.994 68.3556 28.038 68.3336 28.06C68.1356 28.214 67.9596 28.412 67.7836 28.632C67.6736 28.764 67.5416 28.896 67.4096 29.006C67.3216 29.072 67.2336 29.16 67.1676 29.226C67.1456 29.248 67.1456 29.248 67.1236 29.27C67.0576 29.336 67.0136 29.402 66.9256 29.402L66.7496 29.38C66.7496 29.38 66.6836 29.644 66.6836 29.688C66.6616 29.754 66.5956 29.82 66.5076 29.864C66.4636 29.886 66.4196 29.93 66.3976 29.952C66.0896 30.238 65.7596 30.546 65.4296 30.832C65.0776 31.118 64.7476 31.426 64.4176 31.756C64.1096 32.064 63.8016 32.372 63.4716 32.68C63.2516 32.9 63.0316 33.12 62.8336 33.318C62.8116 33.34 62.7676 33.384 62.7456 33.406C62.5256 33.67 62.2836 33.89 62.0196 34.088C61.9316 34.154 61.7556 34.198 61.6676 34.264C61.6016 34.33 61.6016 34.374 61.5796 34.396C61.5796 34.418 61.5576 34.462 61.5356 34.506C61.2936 34.77 61.0076 35.012 60.6996 35.254C60.5236 35.386 60.3476 35.518 60.1936 35.672C59.9736 35.87 59.7536 36.068 59.5556 36.266C59.2696 36.574 58.9616 36.86 58.6316 37.124C58.3016 37.41 57.9716 37.696 57.6416 38.004C57.2676 38.378 56.8936 38.686 56.5196 38.972C56.3656 39.082 56.2336 39.126 56.0796 39.236C56.0356 39.28 55.9916 39.324 55.9696 39.346C55.9476 39.412 55.8816 39.456 55.8156 39.5C55.7496 39.544 55.7056 39.588 55.6396 39.61C55.5516 39.632 55.4856 39.698 55.4196 39.764C55.3536 39.808 55.3096 39.874 55.2876 39.94C55.2656 40.006 55.2216 40.05 55.1776 40.116C55.1116 40.16 55.0456 40.204 54.9796 40.226C54.9136 40.27 54.8256 40.314 54.7596 40.38C54.2976 40.754 53.8356 41.128 53.3516 41.48C53.1536 41.634 52.9556 41.766 52.7576 41.92C52.4276 42.162 52.0976 42.404 51.7676 42.624C51.5696 42.734 51.3496 42.866 51.1516 42.976C50.8216 43.13 50.5136 43.306 50.2276 43.504C49.6776 43.922 49.0836 44.252 48.4456 44.494C48.2916 44.538 48.1596 44.582 48.0496 44.626C47.6316 44.802 47.1916 44.912 46.7296 44.934C46.4436 44.934 46.0696 44.758 45.7176 44.758C45.4316 44.758 45.1676 45 45.1676 45.33C45.1676 45.792 45.8496 46.012 46.2896 46.012C46.5316 46.012 46.7296 45.968 46.9276 45.88C47.0376 45.858 47.1256 45.814 47.2356 45.792C47.3456 45.77 47.4776 45.748 47.6096 45.726C47.7636 45.704 47.9396 45.682 48.0936 45.616C48.5556 45.418 49.0396 45.11 49.5016 44.912C49.8316 44.758 50.1396 44.56 50.4256 44.362C50.6456 44.186 50.8876 44.032 51.1296 43.9C51.3276 43.79 51.4156 43.724 51.5916 43.548C51.7236 43.416 51.8776 43.35 52.0316 43.262C52.9996 42.646 53.8796 41.964 54.6936 41.194C54.8476 41.062 54.9796 40.952 55.1336 40.864C55.4196 40.666 55.6836 40.446 55.9256 40.248C56.2336 39.962 56.5416 39.72 56.8716 39.5C57.0256 39.39 57.1796 39.258 57.2896 39.104C57.3776 38.994 57.4656 38.906 57.5756 38.796C57.8176 38.598 58.0596 38.378 58.3016 38.18C58.5656 37.982 58.8076 37.784 59.0496 37.586C59.3796 37.278 59.6876 36.97 59.9956 36.662C60.5896 36.024 61.2056 35.452 61.8436 34.924C62.0856 34.726 62.3056 34.506 62.5256 34.286C62.7456 34.088 62.9656 33.868 63.2076 33.67C63.5376 33.406 63.8236 33.098 64.1096 32.768C64.2196 32.658 64.3296 32.526 64.4396 32.416C64.8796 31.976 65.3416 31.558 65.8036 31.14C66.8596 30.172 67.8716 29.182 68.8616 28.148C69.6316 27.356 70.5336 27.158 71.6556 27.048C71.9196 27.004 72.2056 26.96 72.4916 26.916C73.5696 26.718 74.6256 26.564 75.6596 26.41C76.6936 26.256 77.7056 26.102 78.6956 25.904C79.6416 25.75 80.5216 25.618 81.3796 25.53C81.7756 25.486 82.1716 25.442 82.5456 25.398C82.7216 25.398 82.8096 25.354 82.9196 25.354C83.0736 25.332 83.3376 25.288 84.0636 25.222C84.0416 25.288 83.9536 25.398 83.8656 25.486C83.7996 25.574 83.7336 25.64 83.7116 25.684C83.4476 26.102 83.2276 26.52 83.0736 26.938C83.0736 26.938 83.0736 26.938 83.0736 26.96C82.9856 27.158 82.8536 27.29 82.7656 27.466C82.3916 28.192 82.0176 28.918 81.6436 29.622C81.1376 30.546 80.6536 31.47 80.1916 32.416C80.0376 32.746 79.8616 33.054 79.7076 33.384C79.5096 33.758 79.3116 34.154 79.1356 34.55C79.1136 34.616 79.0696 34.682 79.0476 34.748C78.2776 36.332 77.6396 37.96 77.1116 39.61C76.9356 40.182 76.7816 40.754 76.6276 41.326C76.5396 41.612 76.4516 41.898 76.3856 42.184C76.3196 42.426 76.2976 42.69 76.2976 42.932C76.2976 43.108 76.2756 43.284 76.2536 43.46C76.2316 43.592 76.2096 43.724 76.1876 43.834C76.0336 44.362 75.9676 44.934 75.9676 45.528C75.9676 45.726 75.9896 45.902 76.0336 46.078C76.0776 46.232 76.0996 46.408 76.0996 46.562L76.0776 46.936C76.0776 47.244 76.1876 47.574 76.3856 47.926C76.4296 48.014 76.4736 48.102 76.5176 48.212C76.6276 48.564 76.9136 48.762 77.3316 48.806ZM75.9676 21.306C76.0336 21.24 76.0996 21.174 76.1656 21.108C76.2976 20.998 76.4296 20.888 76.5396 20.734C76.7156 20.492 76.9136 20.25 77.1336 20.052C77.2216 19.986 77.3096 19.92 77.3756 19.854C77.5296 19.744 77.6836 19.59 77.8156 19.392C77.9696 19.172 78.1456 18.996 78.3656 18.886C78.5636 18.776 78.7176 18.622 78.8496 18.446C78.9816 18.292 79.1136 18.138 79.2676 18.028C79.2896 18.006 79.2896 18.006 79.3116 17.984C79.4656 17.83 79.6196 17.698 79.7516 17.544C79.9496 17.302 80.1916 17.082 80.4336 16.884C80.8956 16.488 81.3356 16.07 81.7536 15.63C82.0616 15.3 82.3916 14.97 82.7216 14.662C83.0956 14.332 83.4476 13.98 83.7776 13.628C84.2176 13.166 84.6796 12.726 85.1416 12.33C85.5596 11.978 85.9116 11.604 86.2196 11.208C86.3736 11.054 86.5496 10.9 86.7476 10.768C86.9236 10.658 87.0776 10.548 87.2316 10.394L89.5196 8.172C89.5856 8.106 89.6296 8.04 89.6956 7.974C90.0036 7.644 90.3336 7.358 90.6856 7.072C90.8176 6.962 90.9276 6.83 91.0376 6.72C91.1036 6.632 91.1696 6.544 91.2356 6.478C91.3456 6.368 91.4556 6.28 91.6096 6.192C91.7196 6.126 91.8076 6.038 91.9176 5.95L92.7976 5.224C92.9076 5.136 92.9956 5.048 93.1056 4.938C93.3476 4.696 93.6116 4.476 93.8976 4.278C94.0516 4.146 94.2056 4.014 94.3156 3.882C94.4256 3.772 94.5356 3.662 94.6456 3.552C94.7556 3.442 94.8656 3.376 95.0196 3.31C95.0856 3.266 95.1516 3.222 95.2176 3.2C95.5256 3.002 95.8336 2.782 96.1636 2.54C96.4496 2.32 96.7576 2.1 97.0876 1.858C97.1096 1.836 97.3516 1.572 97.4396 1.572C97.5056 1.572 97.5496 1.616 97.5496 1.682C97.5496 1.902 97.1316 2.342 96.9996 2.562C96.9556 2.584 96.9336 2.606 96.9336 2.628C96.8236 2.76 96.7576 2.892 96.6916 3.046C96.6256 3.156 96.5596 3.288 96.4936 3.398C96.3396 3.64 96.1856 3.882 96.0316 4.124C95.7676 4.52 95.5256 4.916 95.3276 5.334C95.0636 5.818 94.7556 6.302 94.3816 6.808C93.9416 7.38 93.5456 7.996 93.1936 8.656C93.1496 8.744 93.1056 8.832 93.0836 8.92C93.0176 9.074 92.9296 9.228 92.8196 9.404C92.7536 9.47 92.7096 9.558 92.6436 9.624C92.4016 9.954 92.1816 10.284 92.0276 10.636C91.9176 10.878 91.7856 11.098 91.6316 11.318C91.6096 11.362 91.5876 11.406 91.5656 11.428C91.4776 11.582 91.4116 11.714 91.3676 11.868C91.3456 11.956 91.3016 12.044 91.2576 12.132C91.2136 12.242 91.1476 12.352 91.0816 12.44C91.0376 12.506 90.9936 12.572 90.9496 12.638C90.8836 12.77 90.8176 12.902 90.7076 13.012C90.6856 13.078 90.6416 13.122 90.5976 13.188C90.2016 13.804 89.8496 14.442 89.5416 15.124C89.3656 15.498 89.1676 15.894 88.9696 16.268L86.5056 20.646C86.4176 20.8 86.3076 20.976 86.1756 21.13C85.9776 21.372 85.8456 21.614 85.7576 21.878C85.7356 21.944 85.7356 21.988 85.7356 22.054C85.7136 22.164 85.6916 22.252 85.6476 22.34C85.6256 22.406 85.5816 22.45 85.5156 22.494C85.4716 22.538 85.4276 22.582 85.4056 22.648L85.0976 23.198C85.0316 23.308 84.9656 23.44 84.9216 23.572C84.8556 23.726 84.7896 23.88 84.7016 24.034C84.6576 24.1 84.6136 24.188 84.5476 24.254C84.4376 24.386 84.3496 24.54 84.2836 24.694L84.1296 24.672C83.9756 24.672 83.8436 24.694 83.6896 24.76C83.5356 24.826 83.3816 24.848 83.2276 24.848C82.8536 24.848 82.5016 24.87 82.1936 24.936C81.8196 25.024 81.4676 25.068 81.0936 25.09C80.8516 25.112 80.5876 25.156 80.3236 25.2C79.7296 25.288 79.1136 25.354 78.5196 25.42C78.1016 25.464 77.6836 25.53 77.2876 25.618C77.0896 25.662 76.8696 25.706 76.6716 25.75L74.9116 26.014C74.8896 26.036 74.8676 26.036 74.8456 26.058C74.7796 26.08 74.7576 26.102 74.6916 26.102C74.6476 26.102 74.4496 25.948 74.4716 25.948H74.4496C74.3616 25.948 74.2736 25.992 74.1856 26.058C74.1196 26.124 74.0536 26.146 73.9876 26.168C73.3496 26.322 72.7116 26.432 72.0516 26.454C71.7656 26.454 71.4576 26.498 71.1716 26.608C70.8856 26.696 70.5996 26.74 70.3136 26.762L75.9676 21.306Z" fill="#92331E"/>
</svg>
